<svg width="791" height="812" viewBox="0 0 791 812" fill="none" xmlns="http://www.w3.org/2000/svg">
<mask id="mask0_602_3574" style="mask-type:alpha" maskUnits="userSpaceOnUse" x="25" y="0" width="741" height="741">
<rect x="25" width="741" height="741" fill="#D9D9D9"/>
</mask>
<g mask="url(#mask0_602_3574)">
<path d="M292.209 161.673C311.67 161.673 330.195 165.79 347.784 174.023C365.374 182.256 380.531 193.858 393.255 208.827C405.979 193.858 421.136 182.256 438.725 174.023C456.315 165.79 474.84 161.673 494.3 161.673C529.479 161.673 558.857 173.461 582.434 197.039C606.012 220.616 617.8 249.994 617.8 285.173C617.8 287.044 617.707 288.915 617.52 290.786C617.333 292.658 617.239 294.529 617.239 296.4H572.33C572.704 294.529 572.891 292.658 572.891 290.786V285.173C572.891 262.718 565.406 244.006 550.437 229.036C535.467 214.067 516.755 206.582 494.3 206.582C476.711 206.582 460.431 211.541 445.462 221.458C430.492 231.376 420.2 244.006 414.587 259.35H371.923C366.309 244.006 356.018 231.376 341.048 221.458C326.078 211.541 309.799 206.582 292.209 206.582C269.755 206.582 251.043 214.067 236.073 229.036C221.103 244.006 213.619 262.718 213.619 285.173V290.786C213.619 292.658 213.806 294.529 214.18 296.4H169.271C169.271 294.529 169.177 292.658 168.99 290.786C168.803 288.915 168.709 287.044 168.709 285.173C168.709 249.994 180.498 220.616 204.075 197.039C227.653 173.461 257.031 161.673 292.209 161.673ZM242.809 431.127H305.682C317.658 442.729 330.756 455.266 344.978 468.739C359.199 482.212 375.291 496.994 393.255 513.087C411.219 496.994 427.311 482.212 441.532 468.739C455.753 455.266 468.852 442.729 480.828 431.127H544.262C530.04 446.846 513.2 463.874 493.739 482.212C474.278 500.549 451.637 521.32 425.814 544.523L393.255 573.714L360.696 544.523C334.873 521.32 312.325 500.549 293.051 482.212C273.778 463.874 257.031 446.846 242.809 431.127ZM371.923 453.582C376.788 453.582 380.998 452.179 384.554 449.372C388.109 446.565 390.635 442.916 392.132 438.425L422.446 346.923L442.094 376.114C443.965 379.108 446.584 381.54 449.953 383.412C453.321 385.283 456.876 386.218 460.619 386.218H640.255V341.309H473.53L434.796 284.05C432.55 280.682 429.65 278.156 426.095 276.472C422.539 274.788 418.703 273.946 414.587 273.946C409.722 273.946 405.511 275.349 401.956 278.156C398.401 280.963 395.875 284.612 394.378 289.102L364.064 380.043L344.978 351.414C343.106 348.42 340.487 345.987 337.119 344.116C333.75 342.245 330.195 341.309 326.453 341.309H146.255V386.218H312.98L351.714 443.477C353.959 446.846 356.86 449.372 360.415 451.056C363.97 452.74 367.806 453.582 371.923 453.582Z" fill="#0063F8"/>
</g>
<path d="M135.792 692L165.744 624.8H181.104L211.152 692H194.832L170.256 632.672H176.4L151.728 692H135.792ZM150.768 677.6L154.896 665.792H189.456L193.68 677.6H150.768ZM240.204 693.152C234.828 693.152 229.676 692.448 224.748 691.04C219.82 689.568 215.852 687.68 212.844 685.376L218.124 673.664C221.004 675.712 224.396 677.408 228.3 678.752C232.268 680.032 236.268 680.672 240.3 680.672C243.372 680.672 245.836 680.384 247.692 679.808C249.612 679.168 251.02 678.304 251.916 677.216C252.812 676.128 253.26 674.88 253.26 673.472C253.26 671.68 252.556 670.272 251.148 669.248C249.74 668.16 247.884 667.296 245.58 666.656C243.276 665.952 240.716 665.312 237.9 664.736C235.148 664.096 232.364 663.328 229.548 662.432C226.796 661.536 224.268 660.384 221.964 658.976C219.66 657.568 217.772 655.712 216.3 653.408C214.892 651.104 214.188 648.16 214.188 644.576C214.188 640.736 215.212 637.248 217.26 634.112C219.372 630.912 222.508 628.384 226.668 626.528C230.892 624.608 236.172 623.648 242.508 623.648C246.732 623.648 250.892 624.16 254.988 625.184C259.084 626.144 262.7 627.616 265.836 629.6L261.036 641.408C257.9 639.616 254.764 638.304 251.628 637.472C248.492 636.576 245.42 636.128 242.412 636.128C239.404 636.128 236.94 636.48 235.02 637.184C233.1 637.888 231.724 638.816 230.892 639.968C230.06 641.056 229.644 642.336 229.644 643.808C229.644 645.536 230.348 646.944 231.756 648.032C233.164 649.056 235.02 649.888 237.324 650.528C239.628 651.168 242.156 651.808 244.908 652.448C247.724 653.088 250.508 653.824 253.26 654.656C256.076 655.488 258.636 656.608 260.94 658.016C263.244 659.424 265.1 661.28 266.508 663.584C267.98 665.888 268.716 668.8 268.716 672.32C268.716 676.096 267.66 679.552 265.548 682.688C263.436 685.824 260.268 688.352 256.044 690.272C251.884 692.192 246.604 693.152 240.204 693.152ZM294.641 692V664.544L298.193 673.952L268.625 624.8H285.137L307.793 662.528H298.289L321.041 624.8H336.305L306.737 673.952L310.193 664.544V692H294.641ZM363.486 693.152C358.11 693.152 352.958 692.448 348.03 691.04C343.102 689.568 339.134 687.68 336.126 685.376L341.406 673.664C344.286 675.712 347.678 677.408 351.582 678.752C355.55 680.032 359.55 680.672 363.582 680.672C366.654 680.672 369.118 680.384 370.974 679.808C372.894 679.168 374.302 678.304 375.198 677.216C376.094 676.128 376.542 674.88 376.542 673.472C376.542 671.68 375.838 670.272 374.43 669.248C373.022 668.16 371.166 667.296 368.862 666.656C366.558 665.952 363.998 665.312 361.182 664.736C358.43 664.096 355.646 663.328 352.83 662.432C350.078 661.536 347.55 660.384 345.246 658.976C342.942 657.568 341.054 655.712 339.582 653.408C338.174 651.104 337.47 648.16 337.47 644.576C337.47 640.736 338.494 637.248 340.542 634.112C342.654 630.912 345.79 628.384 349.95 626.528C354.174 624.608 359.454 623.648 365.79 623.648C370.014 623.648 374.174 624.16 378.27 625.184C382.366 626.144 385.982 627.616 389.118 629.6L384.318 641.408C381.182 639.616 378.046 638.304 374.91 637.472C371.774 636.576 368.702 636.128 365.694 636.128C362.686 636.128 360.222 636.48 358.302 637.184C356.382 637.888 355.006 638.816 354.174 639.968C353.342 641.056 352.926 642.336 352.926 643.808C352.926 645.536 353.63 646.944 355.038 648.032C356.446 649.056 358.302 649.888 360.606 650.528C362.91 651.168 365.438 651.808 368.19 652.448C371.006 653.088 373.79 653.824 376.542 654.656C379.358 655.488 381.918 656.608 384.222 658.016C386.526 659.424 388.382 661.28 389.79 663.584C391.262 665.888 391.998 668.8 391.998 672.32C391.998 676.096 390.942 679.552 388.83 682.688C386.718 685.824 383.55 688.352 379.326 690.272C375.166 692.192 369.886 693.152 363.486 693.152ZM415.607 692V637.472H394.103V624.8H452.663V637.472H431.159V692H415.607ZM475.335 651.872H507.687V663.968H475.335V651.872ZM476.487 679.52H513.062V692H461.031V624.8H511.815V637.28H476.487V679.52ZM525.437 692V624.8H538.301L577.949 673.184H571.709V624.8H587.069V692H574.301L534.557 643.616H540.797V692H525.437ZM616.888 692V637.472H595.384V624.8H653.944V637.472H632.44V692H616.888ZM131.171 809V741.8H161.699C168.995 741.8 175.427 743.208 180.995 746.024C186.563 748.776 190.915 752.648 194.051 757.64C197.187 762.632 198.755 768.552 198.755 775.4C198.755 782.184 197.187 788.104 194.051 793.16C190.915 798.152 186.563 802.056 180.995 804.872C175.427 807.624 168.995 809 161.699 809H131.171ZM146.723 796.232H160.931C165.411 796.232 169.283 795.4 172.547 793.736C175.875 792.008 178.435 789.576 180.227 786.44C182.083 783.304 183.011 779.624 183.011 775.4C183.011 771.112 182.083 767.432 180.227 764.36C178.435 761.224 175.875 758.824 172.547 757.16C169.283 755.432 165.411 754.568 160.931 754.568H146.723V796.232ZM210.484 809V741.8H226.036V809H210.484ZM233.152 809L263.104 741.8H278.464L308.512 809H292.192L267.616 749.672H273.76L249.088 809H233.152ZM248.128 794.6L252.256 782.792H286.816L291.04 794.6H248.128ZM346.994 810.152C341.682 810.152 336.786 809.32 332.306 807.656C327.89 805.928 324.018 803.496 320.69 800.36C317.426 797.224 314.866 793.544 313.01 789.32C311.218 785.096 310.322 780.456 310.322 775.4C310.322 770.344 311.218 765.704 313.01 761.48C314.866 757.256 317.458 753.576 320.786 750.44C324.114 747.304 328.018 744.904 332.498 743.24C336.978 741.512 341.906 740.648 347.282 740.648C353.234 740.648 358.578 741.64 363.314 743.624C368.114 745.608 372.146 748.488 375.41 752.264L365.426 761.48C362.994 758.92 360.338 757.032 357.458 755.816C354.578 754.536 351.442 753.896 348.05 753.896C344.786 753.896 341.81 754.408 339.122 755.432C336.434 756.456 334.098 757.928 332.114 759.848C330.194 761.768 328.69 764.04 327.602 766.664C326.578 769.288 326.066 772.2 326.066 775.4C326.066 778.536 326.578 781.416 327.602 784.04C328.69 786.664 330.194 788.968 332.114 790.952C334.098 792.872 336.402 794.344 339.026 795.368C341.714 796.392 344.658 796.904 347.858 796.904C350.93 796.904 353.906 796.424 356.786 795.464C359.73 794.44 362.578 792.744 365.33 790.376L374.162 801.608C370.514 804.36 366.258 806.472 361.394 807.944C356.594 809.416 351.794 810.152 346.994 810.152ZM359.954 799.592V774.344H374.162V801.608L359.954 799.592ZM388.609 809V741.8H401.473L441.121 790.184H434.881V741.8H450.241V809H437.473L397.729 760.616H403.969V809H388.609ZM498.78 810.152C493.468 810.152 488.54 809.288 483.996 807.56C479.516 805.832 475.612 803.4 472.284 800.264C469.02 797.128 466.46 793.448 464.604 789.224C462.812 785 461.916 780.392 461.916 775.4C461.916 770.408 462.812 765.8 464.604 761.576C466.46 757.352 469.052 753.672 472.38 750.536C475.708 747.4 479.612 744.968 484.092 743.24C488.572 741.512 493.436 740.648 498.684 740.648C503.996 740.648 508.86 741.512 513.276 743.24C517.756 744.968 521.628 747.4 524.892 750.536C528.22 753.672 530.812 757.352 532.668 761.576C534.524 765.736 535.452 770.344 535.452 775.4C535.452 780.392 534.524 785.032 532.668 789.32C530.812 793.544 528.22 797.224 524.892 800.36C521.628 803.432 517.756 805.832 513.276 807.56C508.86 809.288 504.028 810.152 498.78 810.152ZM498.684 796.904C501.692 796.904 504.444 796.392 506.94 795.368C509.5 794.344 511.74 792.872 513.66 790.952C515.58 789.032 517.052 786.76 518.076 784.136C519.164 781.512 519.708 778.6 519.708 775.4C519.708 772.2 519.164 769.288 518.076 766.664C517.052 764.04 515.58 761.768 513.66 759.848C511.804 757.928 509.596 756.456 507.036 755.432C504.476 754.408 501.692 753.896 498.684 753.896C495.676 753.896 492.892 754.408 490.332 755.432C487.836 756.456 485.628 757.928 483.708 759.848C481.788 761.768 480.284 764.04 479.196 766.664C478.172 769.288 477.66 772.2 477.66 775.4C477.66 778.536 478.172 781.448 479.196 784.136C480.284 786.76 481.756 789.032 483.612 790.952C485.532 792.872 487.772 794.344 490.332 795.368C492.892 796.392 495.676 796.904 498.684 796.904ZM542.164 809V798.92L583.732 748.808L585.652 754.472H542.932V741.8H599.476V751.88L558.004 801.992L556.084 796.328H600.916V809H542.164ZM627.594 809V781.544L631.146 790.952L601.578 741.8H618.09L640.746 779.528H631.242L653.994 741.8H669.258L639.69 790.952L643.146 781.544V809H627.594Z" fill="#0063F8"/>
</svg>
