<svg width="1097" height="120" viewBox="0 0 1097 120" fill="none" xmlns="http://www.w3.org/2000/svg">
<rect width="1097" height="120" rx="15" fill="url(#paint0_linear_27_1476)"/>
<path d="M47.05 77.5C44.3167 77.5 41.8 77.0667 39.5 76.2C37.2333 75.3 35.25 74.05 33.55 72.45C31.85 70.8167 30.5333 68.9 29.6 66.7C28.6667 64.5 28.2 62.1 28.2 59.5C28.2 56.9 28.6667 54.5 29.6 52.3C30.5333 50.1 31.85 48.2 33.55 46.6C35.2833 44.9667 37.3 43.7167 39.6 42.85C41.9 41.95 44.4167 41.5 47.15 41.5C50.1167 41.5 52.7833 41.9833 55.15 42.95C57.55 43.9167 59.5667 45.3333 61.2 47.2L57.1 51.2C55.7333 49.8333 54.25 48.8333 52.65 48.2C51.0833 47.5333 49.35 47.2 47.45 47.2C45.6167 47.2 43.9167 47.5 42.35 48.1C40.7833 48.7 39.4333 49.55 38.3 50.65C37.1667 51.75 36.2833 53.05 35.65 54.55C35.05 56.05 34.75 57.7 34.75 59.5C34.75 61.2667 35.05 62.9 35.65 64.4C36.2833 65.9 37.1667 67.2167 38.3 68.35C39.4333 69.45 40.7667 70.3 42.3 70.9C43.8333 71.5 45.5333 71.8 47.4 71.8C49.1333 71.8 50.8 71.5333 52.4 71C54.0333 70.4333 55.5833 69.5 57.05 68.2L60.75 73.05C58.9167 74.5167 56.7833 75.6333 54.35 76.4C51.95 77.1333 49.5167 77.5 47.05 77.5ZM54.6 72.2V59.1H60.75V73.05L54.6 72.2ZM85.173 77V71.6L84.823 70.45V61C84.823 59.1667 84.273 57.75 83.173 56.75C82.073 55.7167 80.4064 55.2 78.173 55.2C76.673 55.2 75.1897 55.4333 73.723 55.9C72.2897 56.3667 71.073 57.0167 70.073 57.85L67.623 53.3C69.0564 52.2 70.7564 51.3833 72.723 50.85C74.723 50.2833 76.7897 50 78.923 50C82.7897 50 85.773 50.9333 87.873 52.8C90.0064 54.6333 91.073 57.4833 91.073 61.35V77H85.173ZM76.773 77.35C74.773 77.35 73.023 77.0167 71.523 76.35C70.023 75.65 68.8564 74.7 68.023 73.5C67.223 72.2667 66.823 70.8833 66.823 69.35C66.823 67.85 67.173 66.5 67.873 65.3C68.6064 64.1 69.7897 63.15 71.423 62.45C73.0564 61.75 75.223 61.4 77.923 61.4H85.673V65.55H78.373C76.2397 65.55 74.8064 65.9 74.073 66.6C73.3397 67.2667 72.973 68.1 72.973 69.1C72.973 70.2333 73.423 71.1333 74.323 71.8C75.223 72.4667 76.473 72.8 78.073 72.8C79.6064 72.8 80.973 72.45 82.173 71.75C83.4064 71.05 84.2897 70.0167 84.823 68.65L85.873 72.4C85.273 73.9667 84.1897 75.1833 82.623 76.05C81.0897 76.9167 79.1397 77.35 76.773 77.35ZM96.8941 77V73.05L113.344 53.15L114.494 55.3H97.1941V50.3H119.494V54.25L103.044 74.15L101.794 72H119.944V77H96.8941ZM137.315 77.35C134.582 77.35 132.148 76.7667 130.015 75.6C127.882 74.4 126.198 72.7667 124.965 70.7C123.732 68.6333 123.115 66.2833 123.115 63.65C123.115 60.9833 123.732 58.6333 124.965 56.6C126.198 54.5333 127.882 52.9167 130.015 51.75C132.148 50.5833 134.582 50 137.315 50C140.082 50 142.532 50.5833 144.665 51.75C146.832 52.9167 148.515 54.5167 149.715 56.55C150.948 58.5833 151.565 60.95 151.565 63.65C151.565 66.2833 150.948 68.6333 149.715 70.7C148.515 72.7667 146.832 74.4 144.665 75.6C142.532 76.7667 140.082 77.35 137.315 77.35ZM137.315 72C138.848 72 140.215 71.6667 141.415 71C142.615 70.3333 143.548 69.3667 144.215 68.1C144.915 66.8333 145.265 65.35 145.265 63.65C145.265 61.9167 144.915 60.4333 144.215 59.2C143.548 57.9333 142.615 56.9667 141.415 56.3C140.215 55.6333 138.865 55.3 137.365 55.3C135.832 55.3 134.465 55.6333 133.265 56.3C132.098 56.9667 131.165 57.9333 130.465 59.2C129.765 60.4333 129.415 61.9167 129.415 63.65C129.415 65.35 129.765 66.8333 130.465 68.1C131.165 69.3667 132.098 70.3333 133.265 71C134.465 71.6667 135.815 72 137.315 72ZM191.241 50C193.375 50 195.258 50.4167 196.891 51.25C198.558 52.0833 199.858 53.3667 200.791 55.1C201.725 56.8 202.191 59 202.191 61.7V77H195.941V62.5C195.941 60.1333 195.425 58.3667 194.391 57.2C193.358 56.0333 191.875 55.45 189.941 55.45C188.575 55.45 187.358 55.75 186.291 56.35C185.258 56.95 184.441 57.8333 183.841 59C183.275 60.1667 182.991 61.65 182.991 63.45V77H176.741V62.5C176.741 60.1333 176.225 58.3667 175.191 57.2C174.158 56.0333 172.675 55.45 170.741 55.45C169.375 55.45 168.158 55.75 167.091 56.35C166.058 56.95 165.241 57.8333 164.641 59C164.075 60.1667 163.791 61.65 163.791 63.45V77H157.541V50.3H163.491V57.4L162.441 55.3C163.341 53.5667 164.641 52.25 166.341 51.35C168.075 50.45 170.041 50 172.241 50C174.741 50 176.908 50.6167 178.741 51.85C180.608 53.0833 181.841 54.95 182.441 57.45L179.991 56.6C180.858 54.6 182.291 53 184.291 51.8C186.291 50.6 188.608 50 191.241 50ZM222.777 77.35C219.81 77.35 217.21 76.7667 214.977 75.6C212.777 74.4 211.06 72.7667 209.827 70.7C208.627 68.6333 208.027 66.2833 208.027 63.65C208.027 60.9833 208.61 58.6333 209.777 56.6C210.977 54.5333 212.61 52.9167 214.677 51.75C216.777 50.5833 219.16 50 221.827 50C224.427 50 226.744 50.5667 228.777 51.7C230.81 52.8333 232.41 54.4333 233.577 56.5C234.744 58.5667 235.327 61 235.327 63.8C235.327 64.0667 235.31 64.3667 235.277 64.7C235.277 65.0333 235.26 65.35 235.227 65.65H212.977V61.5H231.927L229.477 62.8C229.51 61.2667 229.194 59.9167 228.527 58.75C227.86 57.5833 226.944 56.6667 225.777 56C224.644 55.3333 223.327 55 221.827 55C220.294 55 218.944 55.3333 217.777 56C216.644 56.6667 215.744 57.6 215.077 58.8C214.444 59.9667 214.127 61.35 214.127 62.95V63.95C214.127 65.55 214.494 66.9667 215.227 68.2C215.96 69.4333 216.994 70.3833 218.327 71.05C219.66 71.7167 221.194 72.05 222.927 72.05C224.427 72.05 225.777 71.8167 226.977 71.35C228.177 70.8833 229.244 70.15 230.177 69.15L233.527 73C232.327 74.4 230.81 75.4833 228.977 76.25C227.177 76.9833 225.11 77.35 222.777 77.35ZM251.38 77.35C248.447 77.35 246.18 76.6 244.58 75.1C242.98 73.5667 242.18 71.3167 242.18 68.35V44.4H248.43V68.2C248.43 69.4667 248.747 70.45 249.38 71.15C250.047 71.85 250.964 72.2 252.13 72.2C253.53 72.2 254.697 71.8333 255.63 71.1L257.38 75.55C256.647 76.15 255.747 76.6 254.68 76.9C253.614 77.2 252.514 77.35 251.38 77.35ZM237.78 55.5V50.5H255.58V55.5H237.78ZM262.522 77V50.3H268.472V57.65L267.772 55.5C268.572 53.7 269.822 52.3333 271.522 51.4C273.255 50.4667 275.405 50 277.972 50V55.95C277.705 55.8833 277.455 55.85 277.222 55.85C276.989 55.8167 276.755 55.8 276.522 55.8C274.155 55.8 272.272 56.5 270.872 57.9C269.472 59.2667 268.772 61.3167 268.772 64.05V77H262.522ZM283.274 77V50.3H289.524V77H283.274ZM286.424 45.9C285.257 45.9 284.29 45.5333 283.524 44.8C282.79 44.0667 282.424 43.1833 282.424 42.15C282.424 41.0833 282.79 40.2 283.524 39.5C284.29 38.7667 285.257 38.4 286.424 38.4C287.59 38.4 288.54 38.75 289.274 39.45C290.04 40.1167 290.424 40.9667 290.424 42C290.424 43.1 290.057 44.0333 289.324 44.8C288.59 45.5333 287.624 45.9 286.424 45.9ZM314.177 77V71.6L313.827 70.45V61C313.827 59.1667 313.277 57.75 312.177 56.75C311.077 55.7167 309.41 55.2 307.177 55.2C305.677 55.2 304.194 55.4333 302.727 55.9C301.294 56.3667 300.077 57.0167 299.077 57.85L296.627 53.3C298.06 52.2 299.76 51.3833 301.727 50.85C303.727 50.2833 305.794 50 307.927 50C311.794 50 314.777 50.9333 316.877 52.8C319.01 54.6333 320.077 57.4833 320.077 61.35V77H314.177ZM305.777 77.35C303.777 77.35 302.027 77.0167 300.527 76.35C299.027 75.65 297.86 74.7 297.027 73.5C296.227 72.2667 295.827 70.8833 295.827 69.35C295.827 67.85 296.177 66.5 296.877 65.3C297.61 64.1 298.794 63.15 300.427 62.45C302.06 61.75 304.227 61.4 306.927 61.4H314.677V65.55H307.377C305.244 65.55 303.81 65.9 303.077 66.6C302.344 67.2667 301.977 68.1 301.977 69.1C301.977 70.2333 302.427 71.1333 303.327 71.8C304.227 72.4667 305.477 72.8 307.077 72.8C308.61 72.8 309.977 72.45 311.177 71.75C312.41 71.05 313.294 70.0167 313.827 68.65L314.877 72.4C314.277 73.9667 313.194 75.1833 311.627 76.05C310.094 76.9167 308.144 77.35 305.777 77.35Z" fill="white"/>
<mask id="mask0_27_1476" style="mask-type:alpha" maskUnits="userSpaceOnUse" x="988" y="20" width="80" height="80">
<rect x="988" y="20" width="80" height="80" fill="#D9D9D9"/>
</mask>
<g mask="url(#mask0_27_1476)">
<path d="M999.026 88.333C997.363 88.333 995.944 87.7444 994.766 86.567C993.589 85.3896 993 83.9698 993 82.3074V67.6922C993 66.0298 993.589 64.61 994.766 63.4326C995.943 62.2552 997.363 61.6665 999.026 61.6665H999.667V46.7435H999.346C998.453 46.3674 997.728 45.7894 997.17 45.0095C996.612 44.2297 996.333 43.3077 996.333 42.2435V38.4615C996.333 37.0555 996.826 35.86 997.811 34.875C998.796 33.89 999.991 33.3975 1001.4 33.3975H1017.94C1019.34 33.3975 1020.54 33.89 1021.52 34.875C1022.51 35.86 1023 37.0555 1023 38.4615V42.2435C1023 43.3077 1022.72 44.2297 1022.16 45.0095C1021.61 45.7894 1020.88 46.3674 1019.99 46.7435H1019.67V61.6665H1036.33V46.7435H1036.01C1035.12 46.3674 1034.39 45.7894 1033.84 45.0095C1033.28 44.2297 1033 43.3077 1033 42.2435V38.4615C1033 37.0555 1033.49 35.86 1034.48 34.875C1035.46 33.89 1036.66 33.3975 1038.06 33.3975H1054.6C1056.01 33.3975 1057.2 33.89 1058.19 34.875C1059.17 35.86 1059.67 37.0555 1059.67 38.4615V42.2435C1059.67 43.3077 1059.39 44.2297 1058.83 45.0095C1058.27 45.7894 1057.55 46.3674 1056.65 46.7435H1056.33V61.6665H1056.97C1058.64 61.6665 1060.06 62.2552 1061.23 63.4326C1062.41 64.61 1063 66.0298 1063 67.6922V82.3074C1063 83.9698 1062.41 85.3896 1061.23 86.567C1060.06 87.7444 1058.64 88.333 1056.97 88.333H999.026ZM1038 42.3076H1054.67V38.3974H1038V42.3076ZM1001.33 42.3076H1018V38.3974H1001.33V42.3076ZM1041.33 61.6665H1051.33V47.3075H1041.33V61.6665ZM1004.67 61.6665H1014.67V47.3075H1004.67V61.6665ZM999.026 83.3331H1056.97C1057.27 83.3331 1057.52 83.237 1057.71 83.0446C1057.9 82.8523 1058 82.6065 1058 82.3074V67.6922C1058 67.393 1057.9 67.1473 1057.71 66.955C1057.52 66.7626 1057.27 66.6665 1056.97 66.6665H999.026C998.727 66.6665 998.481 66.7626 998.288 66.955C998.096 67.1473 998 67.393 998 67.6922V82.3074C998 82.6065 998.096 82.8523 998.288 83.0446C998.481 83.237 998.727 83.3331 999.026 83.3331Z" fill="white"/>
</g>
<defs>
<linearGradient id="paint0_linear_27_1476" x1="0" y1="120" x2="143.355" y2="-427.588" gradientUnits="userSpaceOnUse">
<stop stop-color="#319FDD"/>
<stop offset="1" stop-color="#BFE8FF"/>
</linearGradient>
</defs>
</svg>
