<svg width="293" height="211" viewBox="0 0 293 211" fill="none" xmlns="http://www.w3.org/2000/svg">
<rect width="293" height="211" rx="34" fill="url(#paint0_linear_14_13)"/>
<mask id="mask0_14_13" style="mask-type:alpha" maskUnits="userSpaceOnUse" x="0" y="0" width="293" height="211">
<rect width="293" height="211" rx="34" fill="url(#paint1_linear_14_13)"/>
</mask>
<g mask="url(#mask0_14_13)">
<g filter="url(#filter0_f_14_13)">
<mask id="mask1_14_13" style="mask-type:alpha" maskUnits="userSpaceOnUse" x="123" y="-40" width="201" height="201">
<rect x="123" y="-40" width="201" height="201" fill="#D9D9D9"/>
</mask>
<g mask="url(#mask1_14_13)">
</g>
<path d="M231.855 152.102C221.818 152.102 213.816 147.898 207.849 139.491C201.882 131.083 198.898 121.504 198.898 110.754C198.898 100.003 201.889 90.4232 207.87 82.0133C213.85 73.6034 221.859 69.3985 231.895 69.3985C241.932 69.3985 249.934 73.6022 255.901 82.0095C261.868 90.4169 264.852 99.9958 264.852 110.746C264.852 121.497 261.861 131.077 255.88 139.487C249.9 147.897 241.891 152.102 231.855 152.102ZM159.955 146.134L144.984 141.319C149.242 128.198 152.312 114.879 154.197 101.362C156.081 87.8456 157.023 74.2248 157.023 60.5C157.023 46.7752 156.081 33.1544 154.197 19.6378C152.312 6.12092 149.242 -7.19791 144.984 -20.3187L159.955 -25.1344C164.487 -11.2777 167.748 2.7869 169.74 17.0593C171.731 31.3317 172.727 45.8119 172.727 60.5C172.727 75.1881 171.731 89.6684 169.74 103.941C167.748 118.213 164.487 132.278 159.955 146.134ZM287.045 146.134C282.513 132.278 279.252 118.213 277.26 103.941C275.269 89.6684 274.273 75.1881 274.273 60.5C274.273 45.8119 275.269 31.3317 277.26 17.0593C279.252 2.7869 282.513 -11.2777 287.045 -25.1344L302.016 -20.3187C297.758 -7.19791 294.688 6.12092 292.803 19.6378C290.919 33.1544 289.977 46.7752 289.977 60.5C289.977 74.2248 290.919 87.8456 292.803 101.362C294.688 114.879 297.758 128.198 302.016 141.319L287.045 146.134ZM231.875 136.398C237.633 136.398 241.951 133.746 244.83 128.442C247.709 123.138 249.148 117.241 249.148 110.75C249.148 104.259 247.709 98.362 244.83 93.0578C241.951 87.7537 237.633 85.1016 231.875 85.1016C226.117 85.1016 221.799 87.7537 218.92 93.0578C216.041 98.362 214.602 104.259 214.602 110.75C214.602 117.241 216.041 123.138 218.92 128.442C221.799 133.746 226.117 136.398 231.875 136.398ZM225.698 125.354C226.885 126.436 228.252 126.977 229.8 126.977C231.348 126.977 232.703 126.383 233.864 125.197C235.818 123.243 237.284 121.02 238.261 118.528C239.238 116.036 239.727 113.444 239.727 110.75C239.727 108.056 239.255 105.464 238.313 102.972C237.371 100.48 235.923 98.2573 233.969 96.3032C232.852 95.1167 231.526 94.5235 229.991 94.5235C228.455 94.5235 227.094 95.0469 225.908 96.0938C224.721 97.1407 224.111 98.4667 224.076 100.072C224.041 101.677 224.547 103.073 225.594 104.259C226.012 104.748 226.553 105.585 227.216 106.772C227.879 107.958 228.211 109.284 228.211 110.75C228.211 112.216 227.879 113.542 227.216 114.728C226.553 115.915 226.012 116.752 225.594 117.241C224.407 118.427 223.832 119.806 223.866 121.376C223.901 122.946 224.512 124.272 225.698 125.354ZM215.105 51.6016C205.068 51.6016 197.066 47.3979 191.099 38.9905C185.132 30.5831 182.148 21.0042 182.148 10.2538C182.148 -0.496651 185.139 -10.0768 191.12 -18.4867C197.1 -26.8966 205.109 -31.1016 215.145 -31.1016C225.182 -31.1016 233.184 -26.8979 239.151 -18.4905C245.118 -10.0831 248.102 -0.50419 248.102 10.2462C248.102 20.9967 245.111 30.5768 239.13 38.9867C233.15 47.3966 225.141 51.6016 215.105 51.6016ZM215.125 35.8985C220.883 35.8985 225.201 33.2464 228.08 27.9422C230.959 22.638 232.398 16.7406 232.398 10.25C232.398 3.75938 230.959 -2.13801 228.08 -7.44218C225.201 -12.7463 220.883 -15.3984 215.125 -15.3984C209.367 -15.3984 205.049 -12.7463 202.17 -7.44218C199.291 -2.13801 197.852 3.75938 197.852 10.25C197.852 16.7406 199.291 22.638 202.17 27.9422C205.049 33.2464 209.367 35.8985 215.125 35.8985ZM221.092 24.8539C222.279 23.7721 222.889 22.4461 222.924 20.8758C222.959 19.3055 222.453 17.9271 221.406 16.7406C220.639 15.8467 220.01 14.8411 219.522 13.7238C219.033 12.6065 218.789 11.452 218.789 10.2601C218.789 9.06829 219.033 7.91373 219.522 6.79637C220.01 5.679 220.639 4.66668 221.406 3.75938C222.453 2.57293 222.994 1.21199 223.029 -0.323429C223.064 -1.85885 222.488 -3.23618 221.302 -4.45544C220.115 -5.53931 218.748 -6.08124 217.2 -6.08124C215.652 -6.08124 214.297 -5.48801 213.136 -4.30156C211.182 -2.34739 209.716 -0.112732 208.739 2.40242C207.762 4.91771 207.273 7.5349 207.273 10.254C207.273 12.9732 207.745 15.5716 208.687 18.0492C209.629 20.5268 211.077 22.7427 213.031 24.6969C214.218 25.8833 215.561 26.4766 217.062 26.4766C218.562 26.4766 219.906 25.9357 221.092 24.8539Z" fill="white" fill-opacity="0.38"/>
</g>
<path d="M23.384 184V158.8H27.236L38.252 177.196H36.236L47.072 158.8H50.924L50.96 184H46.532L46.496 165.748H47.432L38.216 181.12H36.128L26.768 165.748H27.848V184H23.384ZM65.9748 184.252C64.0068 184.252 62.2548 183.832 60.7188 182.992C59.1828 182.128 57.9708 180.952 57.0828 179.464C56.1948 177.976 55.7508 176.284 55.7508 174.388C55.7508 172.468 56.1948 170.776 57.0828 169.312C57.9708 167.824 59.1828 166.66 60.7188 165.82C62.2548 164.98 64.0068 164.56 65.9748 164.56C67.9668 164.56 69.7308 164.98 71.2668 165.82C72.8268 166.66 74.0388 167.812 74.9028 169.276C75.7908 170.74 76.2348 172.444 76.2348 174.388C76.2348 176.284 75.7908 177.976 74.9028 179.464C74.0388 180.952 72.8268 182.128 71.2668 182.992C69.7308 183.832 67.9668 184.252 65.9748 184.252ZM65.9748 180.4C67.0788 180.4 68.0628 180.16 68.9268 179.68C69.7908 179.2 70.4628 178.504 70.9428 177.592C71.4468 176.68 71.6988 175.612 71.6988 174.388C71.6988 173.14 71.4468 172.072 70.9428 171.184C70.4628 170.272 69.7908 169.576 68.9268 169.096C68.0628 168.616 67.0908 168.376 66.0108 168.376C64.9068 168.376 63.9228 168.616 63.0588 169.096C62.2188 169.576 61.5468 170.272 61.0428 171.184C60.5388 172.072 60.2868 173.14 60.2868 174.388C60.2868 175.612 60.5388 176.68 61.0428 177.592C61.5468 178.504 62.2188 179.2 63.0588 179.68C63.9228 180.16 64.8948 180.4 65.9748 180.4ZM89.3579 184.252C87.3419 184.252 85.5419 183.832 83.9579 182.992C82.3979 182.128 81.1739 180.952 80.2859 179.464C79.3979 177.976 78.9539 176.284 78.9539 174.388C78.9539 172.468 79.3979 170.776 80.2859 169.312C81.1739 167.824 82.3979 166.66 83.9579 165.82C85.5419 164.98 87.3419 164.56 89.3579 164.56C91.2299 164.56 92.8739 164.944 94.2899 165.712C95.7299 166.456 96.8219 167.56 97.5659 169.024L94.1099 171.04C93.5339 170.128 92.8259 169.456 91.9859 169.024C91.1699 168.592 90.2819 168.376 89.3219 168.376C88.2179 168.376 87.2219 168.616 86.3339 169.096C85.4459 169.576 84.7499 170.272 84.2459 171.184C83.7419 172.072 83.4899 173.14 83.4899 174.388C83.4899 175.636 83.7419 176.716 84.2459 177.628C84.7499 178.516 85.4459 179.2 86.3339 179.68C87.2219 180.16 88.2179 180.4 89.3219 180.4C90.2819 180.4 91.1699 180.184 91.9859 179.752C92.8259 179.32 93.5339 178.648 94.1099 177.736L97.5659 179.752C96.8219 181.192 95.7299 182.308 94.2899 183.1C92.8739 183.868 91.2299 184.252 89.3579 184.252ZM99.6961 184V181.156L111.54 166.828L112.368 168.376H99.9121V164.776H115.968V167.62L104.124 181.948L103.224 180.4H116.292V184H99.6961Z" fill="white"/>
</g>
<path d="M62.5001 90.8526C58.3144 90.8526 54.7465 89.3775 51.7964 86.4274C48.8462 83.4773 47.3712 79.9094 47.3712 75.7237V46.3202C45.7296 46.3202 44.3274 45.7376 43.1648 44.5724C42.0022 43.4071 41.4209 42.0063 41.4209 40.37V34.8629C41.4209 33.2265 42.0035 31.8257 43.1688 30.6605C44.334 29.4952 45.7348 28.9126 47.3712 28.9126H77.629C79.2653 28.9126 80.6661 29.4952 81.8314 30.6605C82.9966 31.8257 83.5792 33.2265 83.5792 34.8629V40.37C83.5792 42.0063 82.9966 43.4071 81.8314 44.5724C80.6661 45.7376 79.2653 46.3202 77.629 46.3202V76.1669C77.5024 80.2561 75.9825 83.726 73.0694 86.5767C70.1563 89.4273 66.6332 90.8526 62.5001 90.8526ZM47.3712 41.3829H77.629C77.9244 41.3829 78.1671 41.2879 78.357 41.098C78.5469 40.9081 78.6419 40.6654 78.6419 40.37V34.8629C78.6419 34.5674 78.5469 34.3248 78.357 34.1348C78.1671 33.9449 77.9244 33.85 77.629 33.85H47.3712C47.0757 33.85 46.8331 33.9449 46.6431 34.1348C46.4532 34.3248 46.3582 34.5674 46.3582 34.8629V40.37C46.3582 40.6654 46.4532 40.9081 46.6431 41.098C46.8331 41.2879 47.0757 41.3829 47.3712 41.3829ZM62.5001 85.9152C64.8929 85.9152 66.9977 85.182 68.8144 83.7155C70.6312 82.249 71.7949 80.4079 72.3055 78.1924H63.3231V73.255H72.6916V68.3174H63.3231V63.38H72.6916V58.4424H63.3231V53.505H72.6916V46.3202H52.3086V75.7237C52.3086 78.5547 53.2994 80.961 55.281 82.9427C57.2627 84.9244 59.6691 85.9152 62.5001 85.9152Z" fill="white"/>
<line x1="152" y1="175.5" x2="153" y2="175.5" stroke="black"/>
<defs>
<filter id="filter0_f_14_13" x="109" y="-54" width="229" height="229" filterUnits="userSpaceOnUse" color-interpolation-filters="sRGB">
<feFlood flood-opacity="0" result="BackgroundImageFix"/>
<feBlend mode="normal" in="SourceGraphic" in2="BackgroundImageFix" result="shape"/>
<feGaussianBlur stdDeviation="7" result="effect1_foregroundBlur_14_13"/>
</filter>
<linearGradient id="paint0_linear_14_13" x1="41.5" y1="169.5" x2="309.5" y2="-7.39903e-06" gradientUnits="userSpaceOnUse">
<stop stop-color="#F8B32E"/>
<stop offset="1" stop-color="#FFE1A6"/>
</linearGradient>
<linearGradient id="paint1_linear_14_13" x1="41.5" y1="169.5" x2="309.5" y2="-7.39903e-06" gradientUnits="userSpaceOnUse">
<stop stop-color="#7246F2"/>
<stop offset="1" stop-color="#B3C2E8"/>
</linearGradient>
</defs>
</svg>
