<svg width="1097" height="120" viewBox="0 0 1097 120" fill="none" xmlns="http://www.w3.org/2000/svg">
<rect width="1097" height="120" rx="15" fill="url(#paint0_linear_879_3502)"/>
<path d="M30.7 77V42H47.1C51.3 42 54.5 42.8333 56.7 44.5C58.9 46.1333 60 48.3333 60 51.1C60 52.9667 59.5667 54.5667 58.7 55.9C57.8333 57.2 56.6667 58.2167 55.2 58.95C53.7667 59.65 52.2 60 50.5 60L51.4 58.2C53.3667 58.2 55.1333 58.5667 56.7 59.3C58.2667 60 59.5 61.0333 60.4 62.4C61.3333 63.7667 61.8 65.4667 61.8 67.5C61.8 70.5 60.65 72.8333 58.35 74.5C56.05 76.1667 52.6333 77 48.1 77H30.7ZM37.2 71.9H47.7C50.1333 71.9 52 71.5 53.3 70.7C54.6 69.9 55.25 68.6167 55.25 66.85C55.25 65.1167 54.6 63.85 53.3 63.05C52 62.2167 50.1333 61.8 47.7 61.8H36.7V56.75H46.4C48.6667 56.75 50.4 56.35 51.6 55.55C52.8333 54.75 53.45 53.55 53.45 51.95C53.45 50.3167 52.8333 49.1 51.6 48.3C50.4 47.5 48.6667 47.1 46.4 47.1H37.2V71.9ZM84.5871 77V71.6L84.2371 70.45V61C84.2371 59.1667 83.6871 57.75 82.5871 56.75C81.4871 55.7167 79.8204 55.2 77.5871 55.2C76.0871 55.2 74.6038 55.4333 73.1371 55.9C71.7038 56.3667 70.4871 57.0167 69.4871 57.85L67.0371 53.3C68.4704 52.2 70.1704 51.3833 72.1371 50.85C74.1371 50.2833 76.2038 50 78.3371 50C82.2038 50 85.1871 50.9333 87.2871 52.8C89.4204 54.6333 90.4871 57.4833 90.4871 61.35V77H84.5871ZM76.1871 77.35C74.1871 77.35 72.4371 77.0167 70.9371 76.35C69.4371 75.65 68.2704 74.7 67.4371 73.5C66.6371 72.2667 66.2371 70.8833 66.2371 69.35C66.2371 67.85 66.5871 66.5 67.2871 65.3C68.0204 64.1 69.2038 63.15 70.8371 62.45C72.4704 61.75 74.6371 61.4 77.3371 61.4H85.0871V65.55H77.7871C75.6538 65.55 74.2204 65.9 73.4871 66.6C72.7538 67.2667 72.3871 68.1 72.3871 69.1C72.3871 70.2333 72.8371 71.1333 73.7371 71.8C74.6371 72.4667 75.8871 72.8 77.4871 72.8C79.0204 72.8 80.3871 72.45 81.5871 71.75C82.8204 71.05 83.7038 70.0167 84.2371 68.65L85.2871 72.4C84.6871 73.9667 83.6038 75.1833 82.0371 76.05C80.5038 76.9167 78.5538 77.35 76.1871 77.35ZM109.857 77.35C107.29 77.35 104.974 76.7833 102.907 75.65C100.874 74.4833 99.2737 72.8833 98.107 70.85C96.9404 68.8167 96.357 66.4167 96.357 63.65C96.357 60.8833 96.9404 58.4833 98.107 56.45C99.2737 54.4167 100.874 52.8333 102.907 51.7C104.974 50.5667 107.29 50 109.857 50C112.09 50 114.09 50.5 115.857 51.5C117.624 52.4667 119.024 53.95 120.057 55.95C121.09 57.95 121.607 60.5167 121.607 63.65C121.607 66.75 121.107 69.3167 120.107 71.35C119.107 73.35 117.724 74.85 115.957 75.85C114.19 76.85 112.157 77.35 109.857 77.35ZM110.607 72C112.107 72 113.44 71.6667 114.607 71C115.807 70.3333 116.757 69.3667 117.457 68.1C118.19 66.8333 118.557 65.35 118.557 63.65C118.557 61.9167 118.19 60.4333 117.457 59.2C116.757 57.9333 115.807 56.9667 114.607 56.3C113.44 55.6333 112.107 55.3 110.607 55.3C109.107 55.3 107.757 55.6333 106.557 56.3C105.39 56.9667 104.44 57.9333 103.707 59.2C103.007 60.4333 102.657 61.9167 102.657 63.65C102.657 65.35 103.007 66.8333 103.707 68.1C104.44 69.3667 105.39 70.3333 106.557 71C107.757 71.6667 109.107 72 110.607 72ZM118.707 77V70.7L118.957 63.6L118.457 56.5V39.9H124.657V77H118.707ZM149.333 77V71.6L148.983 70.45V61C148.983 59.1667 148.433 57.75 147.333 56.75C146.233 55.7167 144.567 55.2 142.333 55.2C140.833 55.2 139.35 55.4333 137.883 55.9C136.45 56.3667 135.233 57.0167 134.233 57.85L131.783 53.3C133.217 52.2 134.917 51.3833 136.883 50.85C138.883 50.2833 140.95 50 143.083 50C146.95 50 149.933 50.9333 152.033 52.8C154.167 54.6333 155.233 57.4833 155.233 61.35V77H149.333ZM140.933 77.35C138.933 77.35 137.183 77.0167 135.683 76.35C134.183 75.65 133.017 74.7 132.183 73.5C131.383 72.2667 130.983 70.8833 130.983 69.35C130.983 67.85 131.333 66.5 132.033 65.3C132.767 64.1 133.95 63.15 135.583 62.45C137.217 61.75 139.383 61.4 142.083 61.4H149.833V65.55H142.533C140.4 65.55 138.967 65.9 138.233 66.6C137.5 67.2667 137.133 68.1 137.133 69.1C137.133 70.2333 137.583 71.1333 138.483 71.8C139.383 72.4667 140.633 72.8 142.233 72.8C143.767 72.8 145.133 72.45 146.333 71.75C147.567 71.05 148.45 70.0167 148.983 68.65L150.033 72.4C149.433 73.9667 148.35 75.1833 146.783 76.05C145.25 76.9167 143.3 77.35 140.933 77.35ZM178.404 50C180.538 50 182.438 50.4167 184.104 51.25C185.804 52.0833 187.138 53.3667 188.104 55.1C189.071 56.8 189.554 59 189.554 61.7V77H183.304V62.5C183.304 60.1333 182.738 58.3667 181.604 57.2C180.504 56.0333 178.954 55.45 176.954 55.45C175.488 55.45 174.188 55.75 173.054 56.35C171.921 56.95 171.038 57.85 170.404 59.05C169.804 60.2167 169.504 61.7 169.504 63.5V77H163.254V50.3H169.204V57.5L168.154 55.3C169.088 53.6 170.438 52.3 172.204 51.4C174.004 50.4667 176.071 50 178.404 50ZM197.483 77V50.3H203.733V77H197.483ZM200.633 45.9C199.466 45.9 198.499 45.5333 197.733 44.8C196.999 44.0667 196.633 43.1833 196.633 42.15C196.633 41.0833 196.999 40.2 197.733 39.5C198.499 38.7667 199.466 38.4 200.633 38.4C201.799 38.4 202.749 38.75 203.483 39.45C204.249 40.1167 204.633 40.9667 204.633 42C204.633 43.1 204.266 44.0333 203.533 44.8C202.799 45.5333 201.833 45.9 200.633 45.9ZM228.386 77V71.6L228.036 70.45V61C228.036 59.1667 227.486 57.75 226.386 56.75C225.286 55.7167 223.619 55.2 221.386 55.2C219.886 55.2 218.403 55.4333 216.936 55.9C215.503 56.3667 214.286 57.0167 213.286 57.85L210.836 53.3C212.269 52.2 213.969 51.3833 215.936 50.85C217.936 50.2833 220.003 50 222.136 50C226.003 50 228.986 50.9333 231.086 52.8C233.219 54.6333 234.286 57.4833 234.286 61.35V77H228.386ZM219.986 77.35C217.986 77.35 216.236 77.0167 214.736 76.35C213.236 75.65 212.069 74.7 211.236 73.5C210.436 72.2667 210.036 70.8833 210.036 69.35C210.036 67.85 210.386 66.5 211.086 65.3C211.819 64.1 213.003 63.15 214.636 62.45C216.269 61.75 218.436 61.4 221.136 61.4H228.886V65.55H221.586C219.453 65.55 218.019 65.9 217.286 66.6C216.553 67.2667 216.186 68.1 216.186 69.1C216.186 70.2333 216.636 71.1333 217.536 71.8C218.436 72.4667 219.686 72.8 221.286 72.8C222.819 72.8 224.186 72.45 225.386 71.75C226.619 71.05 227.503 70.0167 228.036 68.65L229.086 72.4C228.486 73.9667 227.403 75.1833 225.836 76.05C224.303 76.9167 222.353 77.35 219.986 77.35Z" fill="white"/>
<mask id="mask0_879_3502" style="mask-type:alpha" maskUnits="userSpaceOnUse" x="986" y="20" width="80" height="80">
<rect x="986" y="20" width="80" height="80" fill="#D9D9D9"/>
</mask>
<g mask="url(#mask0_879_3502)">
<path d="M1031 93.3332C1025 93.3332 1019.89 91.2221 1015.67 86.9998C1011.44 82.7776 1009.33 77.6665 1009.33 71.6665V69.7498C1004.56 68.9721 1000.58 66.736 997.417 63.0415C994.25 59.3471 992.667 54.9998 992.667 49.9998V33.3332C992.667 32.3887 992.986 31.5971 993.625 30.9582C994.264 30.3193 995.056 29.9998 996 29.9998H1002.67C1002.67 29.0554 1002.99 28.2637 1003.62 27.6248C1004.26 26.9859 1005.06 26.6665 1006 26.6665C1006.94 26.6665 1007.74 26.9859 1008.37 27.6248C1009.01 28.2637 1009.33 29.0554 1009.33 29.9998V36.6665C1009.33 37.6109 1009.01 38.4026 1008.37 39.0415C1007.74 39.6804 1006.94 39.9998 1006 39.9998C1005.06 39.9998 1004.26 39.6804 1003.62 39.0415C1002.99 38.4026 1002.67 37.6109 1002.67 36.6665H999.333V49.9998C999.333 53.6665 1000.64 56.8054 1003.25 59.4165C1005.86 62.0276 1009 63.3332 1012.67 63.3332C1016.33 63.3332 1019.47 62.0276 1022.08 59.4165C1024.69 56.8054 1026 53.6665 1026 49.9998V36.6665H1022.67C1022.67 37.6109 1022.35 38.4026 1021.71 39.0415C1021.07 39.6804 1020.28 39.9998 1019.33 39.9998C1018.39 39.9998 1017.6 39.6804 1016.96 39.0415C1016.32 38.4026 1016 37.6109 1016 36.6665V29.9998C1016 29.0554 1016.32 28.2637 1016.96 27.6248C1017.6 26.9859 1018.39 26.6665 1019.33 26.6665C1020.28 26.6665 1021.07 26.9859 1021.71 27.6248C1022.35 28.2637 1022.67 29.0554 1022.67 29.9998H1029.33C1030.28 29.9998 1031.07 30.3193 1031.71 30.9582C1032.35 31.5971 1032.67 32.3887 1032.67 33.3332V49.9998C1032.67 54.9998 1031.08 59.3471 1027.92 63.0415C1024.75 66.736 1020.78 68.9721 1016 69.7498V71.6665C1016 75.8332 1017.46 79.3748 1020.37 82.2915C1023.29 85.2082 1026.83 86.6665 1031 86.6665C1035.17 86.6665 1038.71 85.2082 1041.62 82.2915C1044.54 79.3748 1046 75.8332 1046 71.6665V66.0832C1044.06 65.3609 1042.46 64.1526 1041.21 62.4582C1039.96 60.7637 1039.33 58.8332 1039.33 56.6665C1039.33 53.8887 1040.31 51.5276 1042.25 49.5832C1044.19 47.6387 1046.56 46.6665 1049.33 46.6665C1052.11 46.6665 1054.47 47.6387 1056.42 49.5832C1058.36 51.5276 1059.33 53.8887 1059.33 56.6665C1059.33 58.8332 1058.71 60.7637 1057.46 62.4582C1056.21 64.1526 1054.61 65.3609 1052.67 66.0832V71.6665C1052.67 77.6665 1050.56 82.7776 1046.33 86.9998C1042.11 91.2221 1037 93.3332 1031 93.3332ZM1049.33 59.9998C1050.28 59.9998 1051.07 59.6804 1051.71 59.0415C1052.35 58.4026 1052.67 57.6109 1052.67 56.6665C1052.67 55.7221 1052.35 54.9304 1051.71 54.2915C1051.07 53.6526 1050.28 53.3332 1049.33 53.3332C1048.39 53.3332 1047.6 53.6526 1046.96 54.2915C1046.32 54.9304 1046 55.7221 1046 56.6665C1046 57.6109 1046.32 58.4026 1046.96 59.0415C1047.6 59.6804 1048.39 59.9998 1049.33 59.9998Z" fill="white"/>
</g>
<defs>
<linearGradient id="paint0_linear_879_3502" x1="0" y1="120" x2="143.355" y2="-427.588" gradientUnits="userSpaceOnUse">
<stop stop-color="#A1A1A1"/>
<stop offset="1" stop-color="#E9E9E9"/>
</linearGradient>
</defs>
</svg>
