<svg width="1097" height="120" viewBox="0 0 1097 120" fill="none" xmlns="http://www.w3.org/2000/svg">
<rect width="1097" height="120" rx="15" fill="url(#paint0_linear_807_5901)"/>
<path d="M37.8 77V47.5H26.2V42H55.9V47.5H44.3V77H37.8ZM75.2121 77V71.6L74.8621 70.45V61C74.8621 59.1667 74.3121 57.75 73.2121 56.75C72.1121 55.7167 70.4454 55.2 68.2121 55.2C66.7121 55.2 65.2288 55.4333 63.7621 55.9C62.3288 56.3667 61.1121 57.0167 60.1121 57.85L57.6621 53.3C59.0954 52.2 60.7954 51.3833 62.7621 50.85C64.7621 50.2833 66.8288 50 68.9621 50C72.8288 50 75.8121 50.9333 77.9121 52.8C80.0454 54.6333 81.1121 57.4833 81.1121 61.35V77H75.2121ZM66.8121 77.35C64.8121 77.35 63.0621 77.0167 61.5621 76.35C60.0621 75.65 58.8954 74.7 58.0621 73.5C57.2621 72.2667 56.8621 70.8833 56.8621 69.35C56.8621 67.85 57.2121 66.5 57.9121 65.3C58.6454 64.1 59.8288 63.15 61.4621 62.45C63.0954 61.75 65.2621 61.4 67.9621 61.4H75.7121V65.55H68.4121C66.2788 65.55 64.8454 65.9 64.1121 66.6C63.3788 67.2667 63.0121 68.1 63.0121 69.1C63.0121 70.2333 63.4621 71.1333 64.3621 71.8C65.2621 72.4667 66.5121 72.8 68.1121 72.8C69.6454 72.8 71.0121 72.45 72.2121 71.75C73.4454 71.05 74.3288 70.0167 74.8621 68.65L75.9121 72.4C75.3121 73.9667 74.2288 75.1833 72.6621 76.05C71.1288 76.9167 69.1788 77.35 66.8121 77.35ZM89.1332 77V50.3H95.0832V57.65L94.3832 55.5C95.1832 53.7 96.4332 52.3333 98.1332 51.4C99.8665 50.4667 102.017 50 104.583 50V55.95C104.317 55.8833 104.067 55.85 103.833 55.85C103.6 55.8167 103.367 55.8 103.133 55.8C100.767 55.8 98.8832 56.5 97.4832 57.9C96.0832 59.2667 95.3832 61.3167 95.3832 64.05V77H89.1332ZM121.891 77.35C119.091 77.35 116.591 76.7667 114.391 75.6C112.224 74.4 110.524 72.7667 109.291 70.7C108.058 68.6333 107.441 66.2833 107.441 63.65C107.441 60.9833 108.058 58.6333 109.291 56.6C110.524 54.5333 112.224 52.9167 114.391 51.75C116.591 50.5833 119.091 50 121.891 50C124.491 50 126.774 50.5333 128.741 51.6C130.741 52.6333 132.258 54.1667 133.291 56.2L128.491 59C127.691 57.7333 126.708 56.8 125.541 56.2C124.408 55.6 123.174 55.3 121.841 55.3C120.308 55.3 118.924 55.6333 117.691 56.3C116.458 56.9667 115.491 57.9333 114.791 59.2C114.091 60.4333 113.741 61.9167 113.741 63.65C113.741 65.3833 114.091 66.8833 114.791 68.15C115.491 69.3833 116.458 70.3333 117.691 71C118.924 71.6667 120.308 72 121.841 72C123.174 72 124.408 71.7 125.541 71.1C126.708 70.5 127.691 69.5667 128.491 68.3L133.291 71.1C132.258 73.1 130.741 74.65 128.741 75.75C126.774 76.8167 124.491 77.35 121.891 77.35ZM136.25 77V73.05L152.7 53.15L153.85 55.3H136.55V50.3H158.85V54.25L142.4 74.15L141.15 72H159.3V77H136.25ZM166.773 87.05C165.473 87.05 164.173 86.8333 162.873 86.4C161.573 85.9667 160.489 85.3667 159.623 84.6L162.123 80C162.756 80.5667 163.473 81.0167 164.273 81.35C165.073 81.6833 165.889 81.85 166.723 81.85C167.856 81.85 168.773 81.5667 169.473 81C170.173 80.4333 170.823 79.4833 171.423 78.15L172.973 74.65L173.473 73.9L183.573 50.3H189.573L177.073 79.15C176.239 81.15 175.306 82.7333 174.273 83.9C173.273 85.0667 172.139 85.8833 170.873 86.35C169.639 86.8167 168.273 87.05 166.773 87.05ZM172.273 77.95L160.223 50.3H166.723L176.523 73.35L172.273 77.95ZM204.996 77.35C202.196 77.35 199.696 76.7667 197.496 75.6C195.33 74.4 193.63 72.7667 192.396 70.7C191.163 68.6333 190.546 66.2833 190.546 63.65C190.546 60.9833 191.163 58.6333 192.396 56.6C193.63 54.5333 195.33 52.9167 197.496 51.75C199.696 50.5833 202.196 50 204.996 50C207.596 50 209.88 50.5333 211.846 51.6C213.846 52.6333 215.363 54.1667 216.396 56.2L211.596 59C210.796 57.7333 209.813 56.8 208.646 56.2C207.513 55.6 206.28 55.3 204.946 55.3C203.413 55.3 202.03 55.6333 200.796 56.3C199.563 56.9667 198.596 57.9333 197.896 59.2C197.196 60.4333 196.846 61.9167 196.846 63.65C196.846 65.3833 197.196 66.8833 197.896 68.15C198.596 69.3833 199.563 70.3333 200.796 71C202.03 71.6667 203.413 72 204.946 72C206.28 72 207.513 71.7 208.646 71.1C209.813 70.5 210.796 69.5667 211.596 68.3L216.396 71.1C215.363 73.1 213.846 74.65 211.846 75.75C209.88 76.8167 207.596 77.35 204.996 77.35ZM238.249 77V71.6L237.899 70.45V61C237.899 59.1667 237.349 57.75 236.249 56.75C235.149 55.7167 233.483 55.2 231.249 55.2C229.749 55.2 228.266 55.4333 226.799 55.9C225.366 56.3667 224.149 57.0167 223.149 57.85L220.699 53.3C222.133 52.2 223.833 51.3833 225.799 50.85C227.799 50.2833 229.866 50 231.999 50C235.866 50 238.849 50.9333 240.949 52.8C243.083 54.6333 244.149 57.4833 244.149 61.35V77H238.249ZM229.849 77.35C227.849 77.35 226.099 77.0167 224.599 76.35C223.099 75.65 221.933 74.7 221.099 73.5C220.299 72.2667 219.899 70.8833 219.899 69.35C219.899 67.85 220.249 66.5 220.949 65.3C221.683 64.1 222.866 63.15 224.499 62.45C226.133 61.75 228.299 61.4 230.999 61.4H238.749V65.55H231.449C229.316 65.55 227.883 65.9 227.149 66.6C226.416 67.2667 226.049 68.1 226.049 69.1C226.049 70.2333 226.499 71.1333 227.399 71.8C228.299 72.4667 229.549 72.8 231.149 72.8C232.683 72.8 234.049 72.45 235.249 71.75C236.483 71.05 237.366 70.0167 237.899 68.65L238.949 72.4C238.349 73.9667 237.266 75.1833 235.699 76.05C234.166 76.9167 232.216 77.35 229.849 77.35Z" fill="white"/>
<mask id="mask0_807_5901" style="mask-type:alpha" maskUnits="userSpaceOnUse" x="980" y="18" width="80" height="80">
<rect x="980" y="18" width="80" height="80" fill="#D9D9D9"/>
</mask>
<g mask="url(#mask0_807_5901)">
<path d="M1013.75 74.6677C1014.8 74.6677 1015.69 74.3055 1016.41 73.5811C1017.14 72.8567 1017.5 71.9689 1017.5 70.9177C1017.5 68.3322 1016.81 65.9977 1015.42 63.9144C1014.03 61.8311 1012.23 60.1462 1010 58.8599V70.9177C1010 71.9689 1010.36 72.8567 1011.09 73.5811C1011.81 74.3055 1012.7 74.6677 1013.75 74.6677ZM1026.25 74.6677C1027.3 74.6677 1028.19 74.3055 1028.91 73.5811C1029.64 72.8567 1030 71.9689 1030 70.9177V58.8599C1027.77 60.1462 1025.97 61.8311 1024.58 63.9144C1023.19 65.9977 1022.5 68.3322 1022.5 70.9177C1022.5 71.9689 1022.86 72.8567 1023.59 73.5811C1024.31 74.3055 1025.2 74.6677 1026.25 74.6677ZM989.141 86.7124L987.571 81.9818C989.819 81.0544 991.64 79.5811 993.036 77.5619C994.431 75.5427 995.128 73.3002 995.128 70.8343V37.5396C993.667 36.0951 992.341 34.5235 991.151 32.8248C989.961 31.1261 988.923 29.3109 988.039 27.3793L992.667 25.3857C995.15 30.7661 998.848 35.0684 1003.76 38.2928C1008.68 41.5172 1014.09 43.1293 1020 43.1293C1025.93 43.1293 1031.35 41.5172 1036.25 38.2928C1041.16 35.0684 1044.85 30.7661 1047.33 25.3857L1051.96 27.3793C1051.08 29.3109 1050.03 31.1261 1048.82 32.8248C1047.62 34.5235 1046.3 36.0951 1044.87 37.5396V70.8343C1044.87 73.3002 1045.56 75.5427 1046.92 77.5619C1048.29 79.5811 1050.1 81.0544 1052.35 81.9818L1050.78 86.7124C1047.49 85.4689 1044.86 83.4037 1042.86 80.517C1040.87 77.6302 1039.87 74.4027 1039.87 70.8343V41.8343C1036.97 43.8215 1033.84 45.3674 1030.49 46.4722C1027.14 47.5769 1023.65 48.1292 1020 48.1292C1016.35 48.1292 1012.85 47.5769 1009.48 46.4722C1006.11 45.3674 1003 43.8215 1000.13 41.8343V70.8343C1000.13 74.4027 999.118 77.6302 997.096 80.517C995.075 83.4037 992.423 85.4689 989.141 86.7124ZM1013.75 79.6676C1011.31 79.6676 1009.25 78.8182 1007.55 77.1195C1005.85 75.4208 1005 73.3535 1005 70.9177V51.9242L1007.77 52.5908C1010.43 53.3088 1012.82 54.4904 1014.94 56.1357C1017.05 57.781 1018.74 59.7126 1020 61.9306C1021.26 59.6913 1022.94 57.7543 1025.05 56.1197C1027.15 54.485 1029.55 53.2981 1032.23 52.5587L1035 51.8922V70.9177C1035 73.3535 1034.15 75.4208 1032.45 77.1195C1030.75 78.8182 1028.69 79.6676 1026.25 79.6676C1025.02 79.6676 1023.86 79.4208 1022.79 78.9272C1021.71 78.4336 1020.78 77.7765 1020 76.956C1019.22 77.7765 1018.29 78.4336 1017.21 78.9272C1016.14 79.4208 1014.99 79.6676 1013.75 79.6676Z" fill="white"/>
</g>
<defs>
<linearGradient id="paint0_linear_807_5901" x1="0" y1="120" x2="143.355" y2="-427.588" gradientUnits="userSpaceOnUse">
<stop stop-color="#8CDD6F"/>
<stop offset="1" stop-color="#C1E8B3"/>
</linearGradient>
</defs>
</svg>
