<svg width="293" height="212" viewBox="0 0 293 212" fill="none" xmlns="http://www.w3.org/2000/svg">
<rect y="0.5" width="293" height="211" rx="34" fill="url(#paint0_linear_807_3211)"/>
<mask id="mask0_807_3211" style="mask-type:alpha" maskUnits="userSpaceOnUse" x="0" y="0" width="293" height="212">
<rect y="0.5" width="293" height="211" rx="34" fill="url(#paint1_linear_807_3211)"/>
</mask>
<g mask="url(#mask0_807_3211)">
<g filter="url(#filter0_f_807_3211)">
<mask id="mask1_807_3211" style="mask-type:alpha" maskUnits="userSpaceOnUse" x="111" y="-48" width="241" height="242">
<rect x="111" y="-47.5" width="241" height="241" fill="#D9D9D9"/>
</mask>
<g mask="url(#mask1_807_3211)">
<path d="M212.672 123.209C215.839 123.209 218.514 122.118 220.696 119.936C222.878 117.753 223.969 115.079 223.969 111.912C223.969 104.123 221.88 97.0907 217.703 90.8147C213.525 84.5386 208.082 79.4631 201.375 75.588V111.912C201.375 115.079 202.466 117.753 204.648 119.936C206.83 122.118 209.505 123.209 212.672 123.209ZM250.328 123.209C253.495 123.209 256.17 122.118 258.352 119.936C260.534 117.753 261.625 115.079 261.625 111.912V75.588C254.918 79.4631 249.475 84.5386 245.298 90.8147C241.12 97.0907 239.031 104.123 239.031 111.912C239.031 115.079 240.122 117.753 242.304 119.936C244.486 122.118 247.161 123.209 250.328 123.209ZM138.538 159.494L133.807 145.243C140.578 142.449 146.066 138.011 150.269 131.928C154.472 125.845 156.574 119.089 156.574 111.661V11.3605C152.171 7.00911 148.177 2.27471 144.592 -2.8427C141.006 -7.9601 137.881 -13.4283 135.216 -19.2473L149.158 -25.2529C156.638 -9.04467 167.78 3.91619 182.586 13.6297C197.39 23.343 213.695 28.1996 231.5 28.1996C249.369 28.1996 265.69 23.343 280.463 13.6297C295.236 3.91619 306.362 -9.04467 313.842 -25.2529L327.784 -19.2473C325.119 -13.4283 321.968 -7.9601 318.331 -2.8427C314.694 2.27471 310.726 7.00911 306.426 11.3605V111.661C306.426 119.089 308.486 125.845 312.605 131.928C316.725 138.011 322.171 142.449 328.942 145.243L324.211 159.494C314.324 155.747 306.378 149.526 300.372 140.83C294.367 132.134 291.364 122.411 291.364 111.661V24.2984C282.622 30.2848 273.205 34.9419 263.112 38.2699C253.019 41.5979 242.481 43.2619 231.5 43.2619C220.519 43.2619 209.956 41.5979 199.811 38.2699C189.666 34.9419 180.275 30.2848 171.636 24.2984V111.661C171.636 122.411 168.592 132.134 162.502 140.83C156.413 149.526 148.425 155.747 138.538 159.494ZM212.672 138.271C205.334 138.271 199.106 135.712 193.989 130.595C188.871 125.478 186.313 119.25 186.313 111.912V54.6941L194.655 56.7024C202.675 58.8652 209.872 62.4249 216.244 67.3814C222.617 72.3378 227.702 78.1568 231.5 84.8384C235.298 78.0926 240.367 72.2574 246.707 67.333C253.048 62.4087 260.26 58.833 268.345 56.6057L276.687 54.5977V111.912C276.687 119.25 274.129 125.478 269.011 130.595C263.894 135.712 257.666 138.271 250.328 138.271C246.608 138.271 243.128 137.528 239.891 136.041C236.653 134.554 233.856 132.574 231.5 130.102C229.144 132.574 226.347 134.554 223.109 136.041C219.872 137.528 216.392 138.271 212.672 138.271Z" fill="white" fill-opacity="0.41"/>
</g>
</g>
<path d="M28.496 184.5V163.26H20.144V159.3H41.528V163.26H33.176V184.5H28.496ZM55.4327 184.5V180.612L55.1807 179.784V172.98C55.1807 171.66 54.7847 170.64 53.9927 169.92C53.2007 169.176 52.0007 168.804 50.3927 168.804C49.3127 168.804 48.2447 168.972 47.1887 169.308C46.1567 169.644 45.2807 170.112 44.5607 170.712L42.7967 167.436C43.8287 166.644 45.0527 166.056 46.4687 165.672C47.9087 165.264 49.3967 165.06 50.9327 165.06C53.7167 165.06 55.8647 165.732 57.3767 167.076C58.9127 168.396 59.6807 170.448 59.6807 173.232V184.5H55.4327ZM49.3847 184.752C47.9447 184.752 46.6847 184.512 45.6047 184.032C44.5247 183.528 43.6847 182.844 43.0847 181.98C42.5087 181.092 42.2207 180.096 42.2207 178.992C42.2207 177.912 42.4727 176.94 42.9767 176.076C43.5047 175.212 44.3567 174.528 45.5327 174.024C46.7087 173.52 48.2687 173.268 50.2127 173.268H55.7927V176.256H50.5367C49.0007 176.256 47.9687 176.508 47.4407 177.012C46.9127 177.492 46.6487 178.092 46.6487 178.812C46.6487 179.628 46.9727 180.276 47.6207 180.756C48.2687 181.236 49.1687 181.476 50.3207 181.476C51.4247 181.476 52.4087 181.224 53.2727 180.72C54.1607 180.216 54.7967 179.472 55.1807 178.488L55.9367 181.188C55.5047 182.316 54.7247 183.192 53.5967 183.816C52.4927 184.44 51.0887 184.752 49.3847 184.752ZM65.4559 184.5V165.276H69.7399V170.568L69.2359 169.02C69.8119 167.724 70.7119 166.74 71.9359 166.068C73.1839 165.396 74.7319 165.06 76.5799 165.06V169.344C76.3879 169.296 76.2079 169.272 76.0399 169.272C75.8719 169.248 75.7039 169.236 75.5359 169.236C73.8319 169.236 72.4759 169.74 71.4679 170.748C70.4599 171.732 69.9559 173.208 69.9559 175.176V184.5H65.4559ZM89.0415 184.752C87.0255 184.752 85.2255 184.332 83.6415 183.492C82.0815 182.628 80.8575 181.452 79.9695 179.964C79.0815 178.476 78.6375 176.784 78.6375 174.888C78.6375 172.968 79.0815 171.276 79.9695 169.812C80.8575 168.324 82.0815 167.16 83.6415 166.32C85.2255 165.48 87.0255 165.06 89.0415 165.06C90.9135 165.06 92.5575 165.444 93.9735 166.212C95.4135 166.956 96.5055 168.06 97.2495 169.524L93.7935 171.54C93.2175 170.628 92.5095 169.956 91.6695 169.524C90.8535 169.092 89.9655 168.876 89.0055 168.876C87.9015 168.876 86.9055 169.116 86.0175 169.596C85.1295 170.076 84.4335 170.772 83.9295 171.684C83.4255 172.572 83.1735 173.64 83.1735 174.888C83.1735 176.136 83.4255 177.216 83.9295 178.128C84.4335 179.016 85.1295 179.7 86.0175 180.18C86.9055 180.66 87.9015 180.9 89.0055 180.9C89.9655 180.9 90.8535 180.684 91.6695 180.252C92.5095 179.82 93.2175 179.148 93.7935 178.236L97.2495 180.252C96.5055 181.692 95.4135 182.808 93.9735 183.6C92.5575 184.368 90.9135 184.752 89.0415 184.752ZM99.3797 184.5V181.656L111.224 167.328L112.052 168.876H99.5957V165.276H115.652V168.12L103.808 182.448L102.908 180.9H115.976V184.5H99.3797ZM121.356 191.736C120.42 191.736 119.484 191.58 118.548 191.268C117.612 190.956 116.832 190.524 116.208 189.972L118.008 186.66C118.464 187.068 118.98 187.392 119.556 187.632C120.132 187.872 120.72 187.992 121.32 187.992C122.136 187.992 122.796 187.788 123.3 187.38C123.804 186.972 124.272 186.288 124.704 185.328L125.82 182.808L126.18 182.268L133.452 165.276H137.772L128.772 186.048C128.172 187.488 127.5 188.628 126.756 189.468C126.036 190.308 125.22 190.896 124.308 191.232C123.42 191.568 122.436 191.736 121.356 191.736ZM125.316 185.184L116.64 165.276H121.32L128.376 181.872L125.316 185.184ZM148.877 184.752C146.861 184.752 145.061 184.332 143.477 183.492C141.917 182.628 140.693 181.452 139.805 179.964C138.917 178.476 138.473 176.784 138.473 174.888C138.473 172.968 138.917 171.276 139.805 169.812C140.693 168.324 141.917 167.16 143.477 166.32C145.061 165.48 146.861 165.06 148.877 165.06C150.749 165.06 152.393 165.444 153.809 166.212C155.249 166.956 156.341 168.06 157.085 169.524L153.629 171.54C153.053 170.628 152.345 169.956 151.505 169.524C150.689 169.092 149.801 168.876 148.841 168.876C147.737 168.876 146.741 169.116 145.853 169.596C144.965 170.076 144.269 170.772 143.765 171.684C143.261 172.572 143.009 173.64 143.009 174.888C143.009 176.136 143.261 177.216 143.765 178.128C144.269 179.016 144.965 179.7 145.853 180.18C146.741 180.66 147.737 180.9 148.841 180.9C149.801 180.9 150.689 180.684 151.505 180.252C152.345 179.82 153.053 179.148 153.629 178.236L157.085 180.252C156.341 181.692 155.249 182.808 153.809 183.6C152.393 184.368 150.749 184.752 148.877 184.752ZM172.819 184.5V180.612L172.567 179.784V172.98C172.567 171.66 172.171 170.64 171.379 169.92C170.587 169.176 169.387 168.804 167.779 168.804C166.699 168.804 165.631 168.972 164.575 169.308C163.543 169.644 162.667 170.112 161.947 170.712L160.183 167.436C161.215 166.644 162.439 166.056 163.855 165.672C165.295 165.264 166.783 165.06 168.319 165.06C171.103 165.06 173.251 165.732 174.763 167.076C176.299 168.396 177.067 170.448 177.067 173.232V184.5H172.819ZM166.771 184.752C165.331 184.752 164.071 184.512 162.991 184.032C161.911 183.528 161.071 182.844 160.471 181.98C159.895 181.092 159.607 180.096 159.607 178.992C159.607 177.912 159.859 176.94 160.363 176.076C160.891 175.212 161.743 174.528 162.919 174.024C164.095 173.52 165.655 173.268 167.599 173.268H173.179V176.256H167.923C166.387 176.256 165.355 176.508 164.827 177.012C164.299 177.492 164.035 178.092 164.035 178.812C164.035 179.628 164.359 180.276 165.007 180.756C165.655 181.236 166.555 181.476 167.707 181.476C168.811 181.476 169.795 181.224 170.659 180.72C171.547 180.216 172.183 179.472 172.567 178.488L173.323 181.188C172.891 182.316 172.111 183.192 170.983 183.816C169.879 184.44 168.475 184.752 166.771 184.752Z" fill="white"/>
<mask id="mask2_807_3211" style="mask-type:alpha" maskUnits="userSpaceOnUse" x="22" y="23" width="79" height="80">
<rect x="22" y="23.5" width="79" height="79" fill="#D9D9D9"/>
</mask>
<g mask="url(#mask2_807_3211)">
<path d="M55.3277 79.4589C56.3659 79.4589 57.2426 79.1012 57.9579 78.3859C58.6732 77.6706 59.0309 76.7939 59.0309 75.7557C59.0309 73.2026 58.3462 70.8973 56.9767 68.84C55.6073 66.7827 53.8232 65.119 51.6246 63.8487V75.7557C51.6246 76.7939 51.9822 77.6706 52.6976 78.3859C53.4128 79.1012 54.2895 79.4589 55.3277 79.4589ZM67.6714 79.4589C68.7096 79.4589 69.5863 79.1012 70.3016 78.3859C71.0169 77.6706 71.3746 76.7939 71.3746 75.7557V63.8487C69.1759 65.119 67.3918 66.7827 66.0224 68.84C64.6529 70.8973 63.9682 73.2026 63.9682 75.7557C63.9682 76.7939 64.3259 77.6706 65.0412 78.3859C65.7565 79.1012 66.6332 79.4589 67.6714 79.4589ZM31.0265 91.3531L29.4756 86.6816C31.6953 85.7658 33.4941 84.3109 34.872 82.3169C36.2499 80.323 36.9388 78.1085 36.9388 75.6735V42.7949C35.4955 41.3685 34.1862 39.8166 33.0109 38.1391C31.8356 36.4616 30.8112 34.6691 29.9377 32.7616L34.5079 30.793C36.9597 36.106 40.6122 40.3546 45.4654 43.5387C50.3184 46.7227 55.6632 48.3148 61.4996 48.3148C67.357 48.3148 72.7071 46.7227 77.5496 43.5387C82.3922 40.3546 86.0394 36.106 88.4912 30.793L93.0615 32.7616C92.1879 34.6691 91.155 36.4616 89.9628 38.1391C88.7707 39.8166 87.4698 41.3685 86.0603 42.7949V75.6735C86.0603 78.1085 86.7355 80.323 88.0859 82.3169C89.4364 84.3109 91.2215 85.7658 93.4412 86.6816L91.8904 91.3531C88.6494 90.125 86.0446 88.0857 84.076 85.2351C82.1073 82.3844 81.1229 79.1972 81.1229 75.6735V47.0359C78.2575 48.9983 75.1705 50.5249 71.862 51.6158C68.5534 52.7067 65.0993 53.2522 61.4996 53.2522C57.8998 53.2522 54.4373 52.7067 51.1118 51.6158C47.7864 50.5249 44.7079 48.9983 41.8762 47.0359V75.6735C41.8762 79.1972 40.8781 82.3844 38.882 85.2351C36.886 88.0857 34.2674 90.125 31.0265 91.3531ZM55.3277 84.3963C52.9223 84.3963 50.8809 83.5575 49.2034 81.8801C47.5259 80.2026 46.6871 78.1611 46.6871 75.7557V56.9997L49.4217 57.658C52.0508 58.367 54.4098 59.5338 56.4988 61.1586C58.5877 62.7833 60.2546 64.6908 61.4996 66.881C62.7445 64.6697 64.4061 62.7569 66.4845 61.1427C68.5629 59.5285 70.9272 58.3564 73.5774 57.6263L76.312 56.9681V75.7557C76.312 78.1611 75.4732 80.2026 73.7957 81.8801C72.1183 83.5575 70.0768 84.3963 67.6714 84.3963C66.4518 84.3963 65.3113 84.1526 64.25 83.6651C63.1886 83.1777 62.2718 82.5288 61.4996 81.7186C60.7273 82.5288 59.8105 83.1777 58.7491 83.6651C57.6878 84.1526 56.5473 84.3963 55.3277 84.3963Z" fill="white"/>
</g>
</g>
<defs>
<filter id="filter0_f_807_3211" x="119.807" y="-39.2529" width="223.136" height="212.747" filterUnits="userSpaceOnUse" color-interpolation-filters="sRGB">
<feFlood flood-opacity="0" result="BackgroundImageFix"/>
<feBlend mode="normal" in="SourceGraphic" in2="BackgroundImageFix" result="shape"/>
<feGaussianBlur stdDeviation="7" result="effect1_foregroundBlur_807_3211"/>
</filter>
<linearGradient id="paint0_linear_807_3211" x1="41.5" y1="170" x2="309.5" y2="0.499993" gradientUnits="userSpaceOnUse">
<stop stop-color="#8CDD6F"/>
<stop offset="1" stop-color="#C1E8B3"/>
</linearGradient>
<linearGradient id="paint1_linear_807_3211" x1="41.5" y1="170" x2="309.5" y2="0.499993" gradientUnits="userSpaceOnUse">
<stop stop-color="#8CDD6F"/>
<stop offset="1" stop-color="#C1E8B3"/>
</linearGradient>
</defs>
</svg>
