<svg width="70" height="70" viewBox="0 0 70 70" fill="none" xmlns="http://www.w3.org/2000/svg">
<rect width="70" height="70" rx="20" fill="url(#paint0_linear_76_16613)"/>
<mask id="mask0_76_16613" style="mask-type:alpha" maskUnits="userSpaceOnUse" x="8" y="11" width="55" height="49">
<rect x="8.00006" y="11" width="55" height="49" fill="#D9D9D9"/>
</mask>
<g mask="url(#mask0_76_16613)">
<path d="M35.7289 54.5584C33.1084 54.5584 30.8747 53.6808 29.0278 51.9257C27.1809 50.1706 26.2574 48.0479 26.2574 45.5577V28.0645C25.2297 28.0645 24.3519 27.7178 23.6241 27.0246C22.8962 26.3313 22.5323 25.4979 22.5323 24.5244V21.248C22.5323 20.2745 22.897 19.4411 23.6265 18.7479C24.356 18.0546 25.233 17.708 26.2574 17.708H45.2003C46.2247 17.708 47.1017 18.0546 47.8312 18.7479C48.5607 19.4411 48.9254 20.2745 48.9254 21.248V24.5244C48.9254 25.4979 48.5607 26.3313 47.8312 27.0246C47.1017 27.7178 46.2247 28.0645 45.2003 28.0645L45.1804 45.8213C45.1144 48.2541 44.1695 50.3185 42.3458 52.0145C40.522 53.7104 38.3164 54.5584 35.7289 54.5584ZM26.2574 25.1271H45.2003C45.3852 25.1271 45.5371 25.0706 45.6561 24.9576C45.775 24.8446 45.8344 24.7002 45.8344 24.5244V21.248C45.8344 21.0723 45.775 20.9279 45.6561 20.8149C45.5371 20.7019 45.3852 20.6455 45.2003 20.6455H26.2574C26.0725 20.6455 25.9206 20.7019 25.8017 20.8149C25.6827 20.9279 25.6233 21.0723 25.6233 21.248V24.5244C25.6233 24.7002 25.6827 24.8446 25.8017 24.9576C25.9206 25.0706 26.0725 25.1271 26.2574 25.1271ZM35.7289 51.621C37.2269 51.621 38.5446 51.1847 39.6819 50.3123C40.8193 49.4398 41.5478 48.3445 41.8675 47.0264H36.2441V44.089H42.1092V41.1514H36.2441V38.214H42.1092V35.2764H36.2441V32.339H42.1092V28.0645H29.3485V45.5577C29.3485 47.2419 29.9688 48.6735 31.2094 49.8525C32.45 51.0315 33.9565 51.621 35.7289 51.621Z" fill="white"/>
</g>
<defs>
<linearGradient id="paint0_linear_76_16613" x1="9.91468" y1="56.2322" x2="84.1532" y2="22.4196" gradientUnits="userSpaceOnUse">
<stop stop-color="#F8B32E"/>
<stop offset="1" stop-color="#FFE1A6"/>
</linearGradient>
</defs>
</svg>
