<svg width="70" height="70" viewBox="0 0 70 70" fill="none" xmlns="http://www.w3.org/2000/svg">
<rect width="70" height="70" rx="20" fill="url(#paint0_linear_807_3572)"/>
<mask id="mask0_807_3572" style="mask-type:alpha" maskUnits="userSpaceOnUse" x="10" y="12" width="50" height="47">
<rect x="10" y="12" width="49.4577" height="47" fill="#D9D9D9"/>
</mask>
<g mask="url(#mask0_807_3572)">
<path d="M30.8653 45.292C31.5153 45.292 32.0641 45.0792 32.5119 44.6536C32.9598 44.2281 33.1837 43.7065 33.1837 43.0889C33.1837 41.5699 32.755 40.1984 31.8977 38.9745C31.0403 37.7505 29.9234 36.7607 28.547 36.0049V43.0889C28.547 43.7065 28.7709 44.2281 29.2187 44.6536C29.6665 45.0792 30.2154 45.292 30.8653 45.292ZM38.5931 45.292C39.243 45.292 39.7919 45.0792 40.2397 44.6536C40.6875 44.2281 40.9114 43.7065 40.9114 43.0889V36.0049C39.5349 36.7607 38.418 37.7505 37.5607 38.9745C36.7034 40.1984 36.2747 41.5699 36.2747 43.0889C36.2747 43.7065 36.4986 44.2281 36.9464 44.6536C37.3942 45.0792 37.9431 45.292 38.5931 45.292ZM15.6516 52.3683L14.6807 49.5891C16.0703 49.0442 17.1965 48.1787 18.0591 46.9924C18.9217 45.8061 19.353 44.4886 19.353 43.0399V23.4792C18.4494 22.6306 17.6297 21.7073 16.894 20.7093C16.1582 19.7113 15.5168 18.6449 14.9699 17.5101L17.8311 16.3389C19.3661 19.4998 21.6527 22.0275 24.691 23.9218C27.7293 25.8161 31.0753 26.7632 34.7292 26.7632C38.3962 26.7632 41.7456 25.8161 44.7773 23.9218C47.809 22.0275 50.0923 19.4998 51.6273 16.3389L54.4884 17.5101C53.9416 18.6449 53.2949 19.7113 52.5486 20.7093C51.8022 21.7073 50.9878 22.6306 50.1054 23.4792V43.0399C50.1054 44.4886 50.5281 45.8061 51.3735 46.9924C52.219 48.1787 53.3365 49.0442 54.7262 49.5891L53.7553 52.3683C51.7263 51.6377 50.0955 50.4244 48.8631 48.7285C47.6306 47.0325 47.0143 45.1363 47.0143 43.0399V26.0024C45.2205 27.1699 43.2879 28.0781 41.2166 28.7271C39.1452 29.3762 36.9828 29.7007 34.7292 29.7007C32.4756 29.7007 30.3079 29.3762 28.226 28.7271C26.1441 28.0781 24.2168 27.1699 22.444 26.0024V43.0399C22.444 45.1363 21.8192 47.0325 20.5695 48.7285C19.3199 50.4244 17.6806 51.6377 15.6516 52.3683ZM30.8653 48.2294C29.3594 48.2294 28.0814 47.7304 27.0312 46.7324C25.981 45.7344 25.4559 44.5199 25.4559 43.0889V31.9302L27.1679 32.3219C28.8138 32.7436 30.2907 33.4379 31.5985 34.4045C32.9062 35.3711 33.9498 36.5059 34.7292 37.809C35.5086 36.4934 36.5488 35.3554 37.85 34.395C39.1512 33.4347 40.6313 32.7374 42.2905 32.303L44.0025 31.9114V43.0889C44.0025 44.5199 43.4774 45.7344 42.4272 46.7324C41.377 47.7304 40.099 48.2294 38.5931 48.2294C37.8295 48.2294 37.1155 48.0845 36.4511 47.7945C35.7866 47.5045 35.2127 47.1184 34.7292 46.6364C34.2457 47.1184 33.6717 47.5045 33.0073 47.7945C32.3428 48.0845 31.6288 48.2294 30.8653 48.2294Z" fill="white"/>
</g>
<defs>
<linearGradient id="paint0_linear_807_3572" x1="9.91468" y1="56.2322" x2="84.1532" y2="22.4196" gradientUnits="userSpaceOnUse">
<stop stop-color="#8CDD6F"/>
<stop offset="1" stop-color="#C1E8B3"/>
</linearGradient>
</defs>
</svg>
