<svg width="1097" height="120" viewBox="0 0 1097 120" fill="none" xmlns="http://www.w3.org/2000/svg">
<rect width="1097" height="120" rx="15" fill="url(#paint0_linear_824_10571)"/>
<path d="M30.7 77V42H36.05L51.35 67.55H48.55L63.6 42H68.95L69 77H62.85L62.8 51.65H64.1L51.3 73H48.4L35.4 51.65H36.9V77H30.7ZM89.8539 77.35C87.1206 77.35 84.6872 76.7667 82.5539 75.6C80.4206 74.4 78.7372 72.7667 77.5039 70.7C76.2706 68.6333 75.6539 66.2833 75.6539 63.65C75.6539 60.9833 76.2706 58.6333 77.5039 56.6C78.7372 54.5333 80.4206 52.9167 82.5539 51.75C84.6872 50.5833 87.1206 50 89.8539 50C92.6206 50 95.0706 50.5833 97.2039 51.75C99.3706 52.9167 101.054 54.5167 102.254 56.55C103.487 58.5833 104.104 60.95 104.104 63.65C104.104 66.2833 103.487 68.6333 102.254 70.7C101.054 72.7667 99.3706 74.4 97.2039 75.6C95.0706 76.7667 92.6206 77.35 89.8539 77.35ZM89.8539 72C91.3872 72 92.7539 71.6667 93.9539 71C95.1539 70.3333 96.0872 69.3667 96.7539 68.1C97.4539 66.8333 97.8039 65.35 97.8039 63.65C97.8039 61.9167 97.4539 60.4333 96.7539 59.2C96.0872 57.9333 95.1539 56.9667 93.9539 56.3C92.7539 55.6333 91.4039 55.3 89.9039 55.3C88.3706 55.3 87.0039 55.6333 85.8039 56.3C84.6372 56.9667 83.7039 57.9333 83.0039 59.2C82.3039 60.4333 81.9539 61.9167 81.9539 63.65C81.9539 65.35 82.3039 66.8333 83.0039 68.1C83.7039 69.3667 84.6372 70.3333 85.8039 71C87.0039 71.6667 88.3539 72 89.8539 72ZM122.33 77.35C119.53 77.35 117.03 76.7667 114.83 75.6C112.664 74.4 110.964 72.7667 109.73 70.7C108.497 68.6333 107.88 66.2833 107.88 63.65C107.88 60.9833 108.497 58.6333 109.73 56.6C110.964 54.5333 112.664 52.9167 114.83 51.75C117.03 50.5833 119.53 50 122.33 50C124.93 50 127.214 50.5333 129.18 51.6C131.18 52.6333 132.697 54.1667 133.73 56.2L128.93 59C128.13 57.7333 127.147 56.8 125.98 56.2C124.847 55.6 123.614 55.3 122.28 55.3C120.747 55.3 119.364 55.6333 118.13 56.3C116.897 56.9667 115.93 57.9333 115.23 59.2C114.53 60.4333 114.18 61.9167 114.18 63.65C114.18 65.3833 114.53 66.8833 115.23 68.15C115.93 69.3833 116.897 70.3333 118.13 71C119.364 71.6667 120.747 72 122.28 72C123.614 72 124.847 71.7 125.98 71.1C127.147 70.5 128.13 69.5667 128.93 68.3L133.73 71.1C132.697 73.1 131.18 74.65 129.18 75.75C127.214 76.8167 124.93 77.35 122.33 77.35ZM136.689 77V73.05L153.139 53.15L154.289 55.3H136.989V50.3H159.289V54.25L142.839 74.15L141.589 72H159.739V77H136.689Z" fill="white"/>
<path d="M1024 90.7368C1019.76 90.7368 1016.15 89.243 1013.16 86.2555C1010.17 83.2681 1008.68 79.655 1008.68 75.4164V45.6407C1007.02 45.6407 1005.6 45.0507 1004.42 43.8707C1003.24 42.6907 1002.65 41.2722 1002.65 39.6151V34.0383C1002.65 32.3812 1003.24 30.9627 1004.42 29.7827C1005.6 28.6027 1007.02 28.0127 1008.68 28.0127H1039.32C1040.98 28.0127 1042.4 28.6027 1043.58 29.7827C1044.76 30.9627 1045.35 32.3812 1045.35 34.0383V39.6151C1045.35 41.2722 1044.76 42.6907 1043.58 43.8707C1042.4 45.0507 1040.98 45.6407 1039.32 45.6407V75.8651C1039.19 80.0061 1037.65 83.52 1034.7 86.4067C1031.75 89.2934 1028.19 90.7368 1024 90.7368ZM1008.68 40.6409H1039.32C1039.62 40.6409 1039.87 40.5447 1040.06 40.3524C1040.25 40.16 1040.35 39.9143 1040.35 39.6151V34.0383C1040.35 33.7391 1040.25 33.4934 1040.06 33.301C1039.87 33.1087 1039.62 33.0126 1039.32 33.0126H1008.68C1008.38 33.0126 1008.13 33.1087 1007.94 33.301C1007.75 33.4934 1007.65 33.7391 1007.65 34.0383V39.6151C1007.65 39.9143 1007.75 40.16 1007.94 40.3524C1008.13 40.5447 1008.38 40.6409 1008.68 40.6409ZM1024 85.7369C1026.42 85.7369 1028.55 84.9943 1030.39 83.5093C1032.23 82.0242 1033.41 80.1599 1033.93 77.9163H1024.83V72.9164H1034.32V67.9163H1024.83V62.9164H1034.32V57.9163H1024.83V52.9164H1034.32V45.6407H1013.68V75.4164C1013.68 78.2832 1014.68 80.72 1016.69 82.7267C1018.7 84.7335 1021.13 85.7369 1024 85.7369Z" fill="white"/>
<defs>
<linearGradient id="paint0_linear_824_10571" x1="155.377" y1="96.3981" x2="231.989" y2="-222.59" gradientUnits="userSpaceOnUse">
<stop stop-color="#F8B32E"/>
<stop offset="1" stop-color="#FFE1A6"/>
</linearGradient>
</defs>
</svg>
