<svg width="1097" height="120" viewBox="0 0 1097 120" fill="none" xmlns="http://www.w3.org/2000/svg">
<rect width="1097" height="120" rx="15" fill="url(#paint0_linear_27_1476)"/>
<mask id="mask0_27_1476" style="mask-type:alpha" maskUnits="userSpaceOnUse" x="985" y="20" width="80" height="80">
<rect x="985" y="20" width="80" height="80" fill="#D9D9D9"/>
</mask>
<g mask="url(#mask0_27_1476)">
<path d="M1024.99 91.6659C1017.86 91.6659 1011.91 89.2141 1007.14 84.3103C1002.38 79.4065 1000 73.3029 1000 65.9994C1000 60.8285 1002.07 55.1608 1006.21 48.9963C1010.35 42.8317 1016.61 36.1149 1025 28.8457C1033.39 36.1149 1039.65 42.8317 1043.79 48.9963C1047.93 55.1608 1050 60.8285 1050 65.9994C1050 73.3029 1047.62 79.4065 1042.85 84.3103C1038.08 89.2141 1032.13 91.6659 1024.99 91.6659ZM1025 86.666C1030.78 86.666 1035.56 84.7077 1039.33 80.791C1043.11 76.8744 1045 71.9438 1045 65.9994C1045 61.9438 1043.32 57.3605 1039.96 52.2494C1036.6 47.1383 1031.61 41.5549 1025 35.4994C1018.39 41.5549 1013.4 47.1383 1010.04 52.2494C1006.68 57.3605 1005 61.9438 1005 65.9994C1005 71.9438 1006.89 76.8744 1010.67 80.791C1014.44 84.7077 1019.22 86.666 1025 86.666Z" fill="white"/>
</g>
<path d="M30.7 77V42H36.05L51.35 67.55H48.55L63.6 42H68.95L69 77H62.85L62.8 51.65H64.1L51.3 73H48.4L35.4 51.65H36.9V77H30.7ZM89.8539 77.35C87.1206 77.35 84.6872 76.7667 82.5539 75.6C80.4206 74.4 78.7372 72.7667 77.5039 70.7C76.2706 68.6333 75.6539 66.2833 75.6539 63.65C75.6539 60.9833 76.2706 58.6333 77.5039 56.6C78.7372 54.5333 80.4206 52.9167 82.5539 51.75C84.6872 50.5833 87.1206 50 89.8539 50C92.6206 50 95.0706 50.5833 97.2039 51.75C99.3706 52.9167 101.054 54.5167 102.254 56.55C103.487 58.5833 104.104 60.95 104.104 63.65C104.104 66.2833 103.487 68.6333 102.254 70.7C101.054 72.7667 99.3706 74.4 97.2039 75.6C95.0706 76.7667 92.6206 77.35 89.8539 77.35ZM89.8539 72C91.3872 72 92.7539 71.6667 93.9539 71C95.1539 70.3333 96.0872 69.3667 96.7539 68.1C97.4539 66.8333 97.8039 65.35 97.8039 63.65C97.8039 61.9167 97.4539 60.4333 96.7539 59.2C96.0872 57.9333 95.1539 56.9667 93.9539 56.3C92.7539 55.6333 91.4039 55.3 89.9039 55.3C88.3706 55.3 87.0039 55.6333 85.8039 56.3C84.6372 56.9667 83.7039 57.9333 83.0039 59.2C82.3039 60.4333 81.9539 61.9167 81.9539 63.65C81.9539 65.35 82.3039 66.8333 83.0039 68.1C83.7039 69.3667 84.6372 70.3333 85.8039 71C87.0039 71.6667 88.3539 72 89.8539 72ZM110.08 77V50.3H116.03V57.65L115.33 55.5C116.13 53.7 117.38 52.3333 119.08 51.4C120.814 50.4667 122.964 50 125.53 50V55.95C125.264 55.8833 125.014 55.85 124.78 55.85C124.547 55.8167 124.314 55.8 124.08 55.8C121.714 55.8 119.83 56.5 118.43 57.9C117.03 59.2667 116.33 61.3167 116.33 64.05V77H110.08ZM131.927 77V48.8C131.927 46 132.743 43.7667 134.377 42.1C136.043 40.4 138.41 39.55 141.477 39.55C142.577 39.55 143.61 39.6667 144.577 39.9C145.577 40.1333 146.41 40.5 147.077 41L145.377 45.7C144.91 45.3333 144.377 45.0667 143.777 44.9C143.177 44.7 142.56 44.6 141.927 44.6C140.627 44.6 139.643 44.9667 138.977 45.7C138.31 46.4 137.977 47.4667 137.977 48.9V51.9L138.177 54.7V77H131.927ZM127.527 55.5V50.5H145.327V55.5H127.527ZM161.143 77.35C158.41 77.35 155.976 76.7667 153.843 75.6C151.71 74.4 150.026 72.7667 148.793 70.7C147.56 68.6333 146.943 66.2833 146.943 63.65C146.943 60.9833 147.56 58.6333 148.793 56.6C150.026 54.5333 151.71 52.9167 153.843 51.75C155.976 50.5833 158.41 50 161.143 50C163.91 50 166.36 50.5833 168.493 51.75C170.66 52.9167 172.343 54.5167 173.543 56.55C174.776 58.5833 175.393 60.95 175.393 63.65C175.393 66.2833 174.776 68.6333 173.543 70.7C172.343 72.7667 170.66 74.4 168.493 75.6C166.36 76.7667 163.91 77.35 161.143 77.35ZM161.143 72C162.676 72 164.043 71.6667 165.243 71C166.443 70.3333 167.376 69.3667 168.043 68.1C168.743 66.8333 169.093 65.35 169.093 63.65C169.093 61.9167 168.743 60.4333 168.043 59.2C167.376 57.9333 166.443 56.9667 165.243 56.3C164.043 55.6333 162.693 55.3 161.193 55.3C159.66 55.3 158.293 55.6333 157.093 56.3C155.926 56.9667 154.993 57.9333 154.293 59.2C153.593 60.4333 153.243 61.9167 153.243 63.65C153.243 65.35 153.593 66.8333 154.293 68.1C154.993 69.3667 155.926 70.3333 157.093 71C158.293 71.6667 159.643 72 161.143 72ZM181.37 77V39.9H187.62V77H181.37ZM207.823 77.35C205.089 77.35 202.656 76.7667 200.523 75.6C198.389 74.4 196.706 72.7667 195.473 70.7C194.239 68.6333 193.623 66.2833 193.623 63.65C193.623 60.9833 194.239 58.6333 195.473 56.6C196.706 54.5333 198.389 52.9167 200.523 51.75C202.656 50.5833 205.089 50 207.823 50C210.589 50 213.039 50.5833 215.173 51.75C217.339 52.9167 219.023 54.5167 220.223 56.55C221.456 58.5833 222.073 60.95 222.073 63.65C222.073 66.2833 221.456 68.6333 220.223 70.7C219.023 72.7667 217.339 74.4 215.173 75.6C213.039 76.7667 210.589 77.35 207.823 77.35ZM207.823 72C209.356 72 210.723 71.6667 211.923 71C213.123 70.3333 214.056 69.3667 214.723 68.1C215.423 66.8333 215.773 65.35 215.773 63.65C215.773 61.9167 215.423 60.4333 214.723 59.2C214.056 57.9333 213.123 56.9667 211.923 56.3C210.723 55.6333 209.373 55.3 207.873 55.3C206.339 55.3 204.973 55.6333 203.773 56.3C202.606 56.9667 201.673 57.9333 200.973 59.2C200.273 60.4333 199.923 61.9167 199.923 63.65C199.923 65.35 200.273 66.8333 200.973 68.1C201.673 69.3667 202.606 70.3333 203.773 71C204.973 71.6667 206.323 72 207.823 72ZM240.149 87.05C237.683 87.05 235.266 86.7167 232.899 86.05C230.566 85.4167 228.649 84.4833 227.149 83.25L229.949 78.55C231.116 79.5167 232.583 80.2833 234.349 80.85C236.149 81.45 237.966 81.75 239.799 81.75C242.733 81.75 244.883 81.0667 246.249 79.7C247.616 78.3667 248.299 76.35 248.299 73.65V68.9L248.799 62.85L248.599 56.8V50.3H254.549V72.95C254.549 77.7833 253.316 81.3333 250.849 83.6C248.383 85.9 244.816 87.05 240.149 87.05ZM239.349 75.8C236.816 75.8 234.516 75.2667 232.449 74.2C230.416 73.1 228.799 71.5833 227.599 69.65C226.433 67.7167 225.849 65.45 225.849 62.85C225.849 60.2833 226.433 58.0333 227.599 56.1C228.799 54.1667 230.416 52.6667 232.449 51.6C234.516 50.5333 236.816 50 239.349 50C241.616 50 243.649 50.45 245.449 51.35C247.249 52.25 248.683 53.65 249.749 55.55C250.849 57.45 251.399 59.8833 251.399 62.85C251.399 65.8167 250.849 68.2667 249.749 70.2C248.683 72.1 247.249 73.5167 245.449 74.45C243.649 75.35 241.616 75.8 239.349 75.8ZM240.299 70.5C241.866 70.5 243.266 70.1833 244.499 69.55C245.733 68.8833 246.683 67.9833 247.349 66.85C248.049 65.6833 248.399 64.35 248.399 62.85C248.399 61.35 248.049 60.0333 247.349 58.9C246.683 57.7333 245.733 56.85 244.499 56.25C243.266 55.6167 241.866 55.3 240.299 55.3C238.733 55.3 237.316 55.6167 236.049 56.25C234.816 56.85 233.849 57.7333 233.149 58.9C232.483 60.0333 232.149 61.35 232.149 62.85C232.149 64.35 232.483 65.6833 233.149 66.85C233.849 67.9833 234.816 68.8833 236.049 69.55C237.316 70.1833 238.733 70.5 240.299 70.5ZM262.766 77V50.3H269.016V77H262.766ZM265.916 45.9C264.749 45.9 263.783 45.5333 263.016 44.8C262.283 44.0667 261.916 43.1833 261.916 42.15C261.916 41.0833 262.283 40.2 263.016 39.5C263.783 38.7667 264.749 38.4 265.916 38.4C267.083 38.4 268.033 38.75 268.766 39.45C269.533 40.1167 269.916 40.9667 269.916 42C269.916 43.1 269.549 44.0333 268.816 44.8C268.083 45.5333 267.116 45.9 265.916 45.9ZM293.669 77V71.6L293.319 70.45V61C293.319 59.1667 292.769 57.75 291.669 56.75C290.569 55.7167 288.902 55.2 286.669 55.2C285.169 55.2 283.686 55.4333 282.219 55.9C280.786 56.3667 279.569 57.0167 278.569 57.85L276.119 53.3C277.552 52.2 279.252 51.3833 281.219 50.85C283.219 50.2833 285.286 50 287.419 50C291.286 50 294.269 50.9333 296.369 52.8C298.502 54.6333 299.569 57.4833 299.569 61.35V77H293.669ZM285.269 77.35C283.269 77.35 281.519 77.0167 280.019 76.35C278.519 75.65 277.352 74.7 276.519 73.5C275.719 72.2667 275.319 70.8833 275.319 69.35C275.319 67.85 275.669 66.5 276.369 65.3C277.102 64.1 278.286 63.15 279.919 62.45C281.552 61.75 283.719 61.4 286.419 61.4H294.169V65.55H286.869C284.736 65.55 283.302 65.9 282.569 66.6C281.836 67.2667 281.469 68.1 281.469 69.1C281.469 70.2333 281.919 71.1333 282.819 71.8C283.719 72.4667 284.969 72.8 286.569 72.8C288.102 72.8 289.469 72.45 290.669 71.75C291.902 71.05 292.786 70.0167 293.319 68.65L294.369 72.4C293.769 73.9667 292.686 75.1833 291.119 76.05C289.586 76.9167 287.636 77.35 285.269 77.35Z" fill="white"/>
<defs>
<linearGradient id="paint0_linear_27_1476" x1="0" y1="120" x2="143.355" y2="-427.588" gradientUnits="userSpaceOnUse">
<stop stop-color="#E24343"/>
<stop offset="1" stop-color="#EF9D9D"/>
</linearGradient>
</defs>
</svg>
