<svg width="74" height="62" viewBox="0 0 74 62" fill="none" xmlns="http://www.w3.org/2000/svg">
<path d="M21.6667 0C24.5556 0 27.3056 0.611111 29.9167 1.83333C32.5278 3.05556 34.7778 4.77778 36.6667 7C38.5556 4.77778 40.8056 3.05556 43.4167 1.83333C46.0278 0.611111 48.7778 0 51.6667 0C56.8889 0 61.25 1.75 64.75 5.25C68.25 8.75 70 13.1111 70 18.3333C70 18.6111 69.9861 18.8889 69.9583 19.1667C69.9306 19.4444 69.9167 19.7222 69.9167 20H63.25C63.3056 19.7222 63.3333 19.4444 63.3333 19.1667V18.3333C63.3333 15 62.2222 12.2222 60 10C57.7778 7.77778 55 6.66667 51.6667 6.66667C49.0556 6.66667 46.6389 7.40278 44.4167 8.875C42.1944 10.3472 40.6667 12.2222 39.8333 14.5H33.5C32.6667 12.2222 31.1389 10.3472 28.9167 8.875C26.6944 7.40278 24.2778 6.66667 21.6667 6.66667C18.3333 6.66667 15.5556 7.77778 13.3333 10C11.1111 12.2222 10 15 10 18.3333V19.1667C10 19.4444 10.0278 19.7222 10.0833 20H3.41667C3.41667 19.7222 3.40278 19.4444 3.375 19.1667C3.34722 18.8889 3.33333 18.6111 3.33333 18.3333C3.33333 13.1111 5.08333 8.75 8.58333 5.25C12.0833 1.75 16.4444 0 21.6667 0ZM14.3333 40H23.6667C25.4444 41.7222 27.3889 43.5833 29.5 45.5833C31.6111 47.5833 34 49.7778 36.6667 52.1667C39.3333 49.7778 41.7222 47.5833 43.8333 45.5833C45.9445 43.5833 47.8889 41.7222 49.6667 40H59.0833C56.9722 42.3333 54.4722 44.8611 51.5833 47.5833C48.6944 50.3056 45.3333 53.3889 41.5 56.8333L36.6667 61.1667L31.8333 56.8333C28 53.3889 24.6528 50.3056 21.7917 47.5833C18.9306 44.8611 16.4444 42.3333 14.3333 40ZM33.5 43.3333C34.2222 43.3333 34.8472 43.125 35.375 42.7083C35.9028 42.2917 36.2778 41.75 36.5 41.0833L41 27.5L43.9167 31.8333C44.1944 32.2778 44.5833 32.6389 45.0833 32.9167C45.5833 33.1944 46.1111 33.3333 46.6667 33.3333H73.3333V26.6667H48.5833L42.8333 18.1667C42.5 17.6667 42.0694 17.2917 41.5417 17.0417C41.0139 16.7917 40.4444 16.6667 39.8333 16.6667C39.1111 16.6667 38.4861 16.875 37.9583 17.2917C37.4306 17.7083 37.0556 18.25 36.8333 18.9167L32.3333 32.4167L29.5 28.1667C29.2222 27.7222 28.8333 27.3611 28.3333 27.0833C27.8333 26.8056 27.3056 26.6667 26.75 26.6667H0V33.3333H24.75L30.5 41.8333C30.8333 42.3333 31.2639 42.7083 31.7917 42.9583C32.3194 43.2083 32.8889 43.3333 33.5 43.3333Z" fill="#0063F8"/>
</svg>
