<svg width="70" height="70" viewBox="0 0 70 70" fill="none" xmlns="http://www.w3.org/2000/svg">
<circle cx="35" cy="35" r="35" fill="url(#paint0_linear_797_3904)"/>
<path d="M35 34.2303C32.5938 34.2303 30.5339 33.3735 28.8204 31.66C27.1068 29.9465 26.2501 27.8866 26.2501 25.4804C26.2501 23.0742 27.1068 21.0143 28.8204 19.3008C30.5339 17.5872 32.5938 16.7305 35 16.7305C37.4062 16.7305 39.4661 17.5872 41.1796 19.3008C42.8932 21.0143 43.7499 23.0742 43.7499 25.4804C43.7499 27.8866 42.8932 29.9465 41.1796 31.66C39.4661 33.3735 37.4062 34.2303 35 34.2303ZM16.2501 53.2687V47.7111C16.2501 46.4868 16.5826 45.353 17.2477 44.3097C17.9127 43.2665 18.8013 42.4644 19.9135 41.9035C22.3847 40.6919 24.8775 39.7833 27.3919 39.1775C29.9063 38.5718 32.4423 38.2689 35 38.2689C37.5577 38.2689 40.0937 38.5718 42.6081 39.1775C45.1225 39.7833 47.6153 40.6919 50.0865 41.9035C51.1987 42.4644 52.0873 43.2665 52.7523 44.3097C53.4174 45.353 53.7499 46.4868 53.7499 47.7111V53.2687H16.2501ZM20 49.5188H50V47.7111C50 47.2047 49.8534 46.7359 49.5601 46.3048C49.2668 45.8738 48.8686 45.522 48.3654 45.2495C46.2115 44.1887 44.0153 43.385 41.7767 42.8385C39.5382 42.292 37.2792 42.0188 35 42.0188C32.7207 42.0188 30.4618 42.292 28.2232 42.8385C25.9847 43.385 23.7885 44.1887 21.6346 45.2495C21.1314 45.522 20.7332 45.8738 20.4399 46.3048C20.1466 46.7359 20 47.2047 20 47.7111V49.5188ZM35 30.4804C36.375 30.4804 37.5521 29.9908 38.5312 29.0117C39.5104 28.0325 40 26.8554 40 25.4804C40 24.1054 39.5104 22.9283 38.5312 21.9492C37.5521 20.97 36.375 20.4804 35 20.4804C33.625 20.4804 32.4479 20.97 31.4687 21.9492C30.4896 22.9283 30 24.1054 30 25.4804C30 26.8554 30.4896 28.0325 31.4687 29.0117C32.4479 29.9908 33.625 30.4804 35 30.4804Z" fill="white"/>
<defs>
<linearGradient id="paint0_linear_797_3904" x1="-3.01748e-06" y1="70" x2="95" y2="-11" gradientUnits="userSpaceOnUse">
<stop stop-color="#888888" stop-opacity="0.65"/>
<stop offset="1" stop-color="#E1E1E1"/>
</linearGradient>
</defs>
</svg>
