<svg width="1097" height="120" viewBox="0 0 1097 120" fill="none" xmlns="http://www.w3.org/2000/svg">
<rect width="1097" height="120" rx="15" fill="url(#paint0_linear_27_1476)"/>
<mask id="mask0_27_1476" style="mask-type:alpha" maskUnits="userSpaceOnUse" x="994" y="20" width="80" height="80">
<rect x="994" y="20" width="80" height="80" fill="#D9D9D9"/>
</mask>
<g mask="url(#mask0_27_1476)">
<path d="M1034 90.7378C1029.76 90.7378 1026.15 89.244 1023.16 86.2565C1020.17 83.2691 1018.68 79.656 1018.68 75.4173V45.6417C1017.02 45.6417 1015.6 45.0517 1014.42 43.8717C1013.24 42.6917 1012.65 41.2731 1012.65 39.6161V34.0393C1012.65 32.3822 1013.24 30.9637 1014.42 29.7837C1015.6 28.6037 1017.02 28.0137 1018.68 28.0137H1049.32C1050.98 28.0137 1052.4 28.6037 1053.58 29.7837C1054.76 30.9637 1055.35 32.3822 1055.35 34.0393V39.6161C1055.35 41.2731 1054.76 42.6917 1053.58 43.8717C1052.4 45.0517 1050.98 45.6417 1049.32 45.6417L1049.29 75.8661C1049.18 80.0071 1047.65 83.521 1044.7 86.4077C1041.75 89.2944 1038.19 90.7378 1034 90.7378ZM1018.68 40.6418H1049.32C1049.62 40.6418 1049.87 40.5457 1050.06 40.3533C1050.25 40.161 1050.35 39.9153 1050.35 39.6161V34.0393C1050.35 33.7401 1050.25 33.4943 1050.06 33.302C1049.87 33.1097 1049.62 33.0136 1049.32 33.0136H1018.68C1018.38 33.0136 1018.13 33.1097 1017.94 33.302C1017.75 33.4943 1017.65 33.7401 1017.65 34.0393V39.6161C1017.65 39.9153 1017.75 40.161 1017.94 40.3533C1018.13 40.5457 1018.38 40.6418 1018.68 40.6418ZM1034 85.7378C1036.42 85.7378 1038.55 84.9953 1040.39 83.5103C1042.23 82.0252 1043.41 80.1609 1043.93 77.9173H1034.83V72.9174H1044.32V67.9173H1034.83V62.9174H1044.32V57.9173H1034.83V52.9174H1044.32V45.6417H1023.68V75.4173C1023.68 78.2842 1024.68 80.721 1026.69 82.7277C1028.7 84.7345 1031.13 85.7378 1034 85.7378Z" fill="white"/>
</g>
<path d="M30.7 77V42H37.2V71.5H55.5V77H30.7ZM60.0316 77V50.3H66.2816V77H60.0316ZM63.1816 45.9C62.015 45.9 61.0483 45.5333 60.2816 44.8C59.5483 44.0667 59.1816 43.1833 59.1816 42.15C59.1816 41.0833 59.5483 40.2 60.2816 39.5C61.0483 38.7667 62.015 38.4 63.1816 38.4C64.3483 38.4 65.2983 38.75 66.0316 39.45C66.7983 40.1167 67.1816 40.9667 67.1816 42C67.1816 43.1 66.815 44.0333 66.0816 44.8C65.3483 45.5333 64.3816 45.9 63.1816 45.9ZM89.2848 77.35C87.1181 77.35 85.1348 76.85 83.3348 75.85C81.5681 74.85 80.1514 73.35 79.0848 71.35C78.0514 69.3167 77.5348 66.75 77.5348 63.65C77.5348 60.5167 78.0348 57.95 79.0348 55.95C80.0681 53.95 81.4681 52.4667 83.2348 51.5C85.0014 50.5 87.0181 50 89.2848 50C91.9181 50 94.2348 50.5667 96.2348 51.7C98.2681 52.8333 99.8681 54.4167 101.035 56.45C102.235 58.4833 102.835 60.8833 102.835 63.65C102.835 66.4167 102.235 68.8333 101.035 70.9C99.8681 72.9333 98.2681 74.5167 96.2348 75.65C94.2348 76.7833 91.9181 77.35 89.2848 77.35ZM74.4848 86.7V50.3H80.4348V56.6L80.2348 63.7L80.7348 70.8V86.7H74.4848ZM88.5848 72C90.0848 72 91.4181 71.6667 92.5848 71C93.7848 70.3333 94.7348 69.3667 95.4348 68.1C96.1348 66.8333 96.4848 65.35 96.4848 63.65C96.4848 61.9167 96.1348 60.4333 95.4348 59.2C94.7348 57.9333 93.7848 56.9667 92.5848 56.3C91.4181 55.6333 90.0848 55.3 88.5848 55.3C87.0848 55.3 85.7348 55.6333 84.5348 56.3C83.3348 56.9667 82.3848 57.9333 81.6848 59.2C80.9848 60.4333 80.6348 61.9167 80.6348 63.65C80.6348 65.35 80.9848 66.8333 81.6848 68.1C82.3848 69.3667 83.3348 70.3333 84.5348 71C85.7348 71.6667 87.0848 72 88.5848 72ZM108.762 77V50.3H115.012V77H108.762ZM111.912 45.9C110.745 45.9 109.779 45.5333 109.012 44.8C108.279 44.0667 107.912 43.1833 107.912 42.15C107.912 41.0833 108.279 40.2 109.012 39.5C109.779 38.7667 110.745 38.4 111.912 38.4C113.079 38.4 114.029 38.75 114.762 39.45C115.529 40.1167 115.912 40.9667 115.912 42C115.912 43.1 115.545 44.0333 114.812 44.8C114.079 45.5333 113.112 45.9 111.912 45.9ZM134.515 77.35C131.949 77.35 129.632 76.7833 127.565 75.65C125.532 74.4833 123.932 72.8833 122.765 70.85C121.599 68.8167 121.015 66.4167 121.015 63.65C121.015 60.8833 121.599 58.4833 122.765 56.45C123.932 54.4167 125.532 52.8333 127.565 51.7C129.632 50.5667 131.949 50 134.515 50C136.749 50 138.749 50.5 140.515 51.5C142.282 52.4667 143.682 53.95 144.715 55.95C145.749 57.95 146.265 60.5167 146.265 63.65C146.265 66.75 145.765 69.3167 144.765 71.35C143.765 73.35 142.382 74.85 140.615 75.85C138.849 76.85 136.815 77.35 134.515 77.35ZM135.265 72C136.765 72 138.099 71.6667 139.265 71C140.465 70.3333 141.415 69.3667 142.115 68.1C142.849 66.8333 143.215 65.35 143.215 63.65C143.215 61.9167 142.849 60.4333 142.115 59.2C141.415 57.9333 140.465 56.9667 139.265 56.3C138.099 55.6333 136.765 55.3 135.265 55.3C133.765 55.3 132.415 55.6333 131.215 56.3C130.049 56.9667 129.099 57.9333 128.365 59.2C127.665 60.4333 127.315 61.9167 127.315 63.65C127.315 65.35 127.665 66.8333 128.365 68.1C129.099 69.3667 130.049 70.3333 131.215 71C132.415 71.6667 133.765 72 135.265 72ZM143.365 77V70.7L143.615 63.6L143.115 56.5V39.9H149.315V77H143.365ZM169.541 77.35C166.808 77.35 164.375 76.7667 162.241 75.6C160.108 74.4 158.425 72.7667 157.191 70.7C155.958 68.6333 155.341 66.2833 155.341 63.65C155.341 60.9833 155.958 58.6333 157.191 56.6C158.425 54.5333 160.108 52.9167 162.241 51.75C164.375 50.5833 166.808 50 169.541 50C172.308 50 174.758 50.5833 176.891 51.75C179.058 52.9167 180.741 54.5167 181.941 56.55C183.175 58.5833 183.791 60.95 183.791 63.65C183.791 66.2833 183.175 68.6333 181.941 70.7C180.741 72.7667 179.058 74.4 176.891 75.6C174.758 76.7667 172.308 77.35 169.541 77.35ZM169.541 72C171.075 72 172.441 71.6667 173.641 71C174.841 70.3333 175.775 69.3667 176.441 68.1C177.141 66.8333 177.491 65.35 177.491 63.65C177.491 61.9167 177.141 60.4333 176.441 59.2C175.775 57.9333 174.841 56.9667 173.641 56.3C172.441 55.6333 171.091 55.3 169.591 55.3C168.058 55.3 166.691 55.6333 165.491 56.3C164.325 56.9667 163.391 57.9333 162.691 59.2C161.991 60.4333 161.641 61.9167 161.641 63.65C161.641 65.35 161.991 66.8333 162.691 68.1C163.391 69.3667 164.325 70.3333 165.491 71C166.691 71.6667 168.041 72 169.541 72ZM201.868 87.05C199.401 87.05 196.985 86.7167 194.618 86.05C192.285 85.4167 190.368 84.4833 188.868 83.25L191.668 78.55C192.835 79.5167 194.301 80.2833 196.068 80.85C197.868 81.45 199.685 81.75 201.518 81.75C204.451 81.75 206.601 81.0667 207.968 79.7C209.335 78.3667 210.018 76.35 210.018 73.65V68.9L210.518 62.85L210.318 56.8V50.3H216.268V72.95C216.268 77.7833 215.035 81.3333 212.568 83.6C210.101 85.9 206.535 87.05 201.868 87.05ZM201.068 75.8C198.535 75.8 196.235 75.2667 194.168 74.2C192.135 73.1 190.518 71.5833 189.318 69.65C188.151 67.7167 187.568 65.45 187.568 62.85C187.568 60.2833 188.151 58.0333 189.318 56.1C190.518 54.1667 192.135 52.6667 194.168 51.6C196.235 50.5333 198.535 50 201.068 50C203.335 50 205.368 50.45 207.168 51.35C208.968 52.25 210.401 53.65 211.468 55.55C212.568 57.45 213.118 59.8833 213.118 62.85C213.118 65.8167 212.568 68.2667 211.468 70.2C210.401 72.1 208.968 73.5167 207.168 74.45C205.368 75.35 203.335 75.8 201.068 75.8ZM202.018 70.5C203.585 70.5 204.985 70.1833 206.218 69.55C207.451 68.8833 208.401 67.9833 209.068 66.85C209.768 65.6833 210.118 64.35 210.118 62.85C210.118 61.35 209.768 60.0333 209.068 58.9C208.401 57.7333 207.451 56.85 206.218 56.25C204.985 55.6167 203.585 55.3 202.018 55.3C200.451 55.3 199.035 55.6167 197.768 56.25C196.535 56.85 195.568 57.7333 194.868 58.9C194.201 60.0333 193.868 61.35 193.868 62.85C193.868 64.35 194.201 65.6833 194.868 66.85C195.568 67.9833 196.535 68.8833 197.768 69.55C199.035 70.1833 200.451 70.5 202.018 70.5ZM224.485 77V50.3H230.435V57.65L229.735 55.5C230.535 53.7 231.785 52.3333 233.485 51.4C235.218 50.4667 237.368 50 239.935 50V55.95C239.668 55.8833 239.418 55.85 239.185 55.85C238.951 55.8167 238.718 55.8 238.485 55.8C236.118 55.8 234.235 56.5 232.835 57.9C231.435 59.2667 230.735 61.3167 230.735 64.05V77H224.485ZM259.782 77V71.6L259.432 70.45V61C259.432 59.1667 258.882 57.75 257.782 56.75C256.682 55.7167 255.016 55.2 252.782 55.2C251.282 55.2 249.799 55.4333 248.332 55.9C246.899 56.3667 245.682 57.0167 244.682 57.85L242.232 53.3C243.666 52.2 245.366 51.3833 247.332 50.85C249.332 50.2833 251.399 50 253.532 50C257.399 50 260.382 50.9333 262.482 52.8C264.616 54.6333 265.682 57.4833 265.682 61.35V77H259.782ZM251.382 77.35C249.382 77.35 247.632 77.0167 246.132 76.35C244.632 75.65 243.466 74.7 242.632 73.5C241.832 72.2667 241.432 70.8833 241.432 69.35C241.432 67.85 241.782 66.5 242.482 65.3C243.216 64.1 244.399 63.15 246.032 62.45C247.666 61.75 249.832 61.4 252.532 61.4H260.282V65.55H252.982C250.849 65.55 249.416 65.9 248.682 66.6C247.949 67.2667 247.582 68.1 247.582 69.1C247.582 70.2333 248.032 71.1333 248.932 71.8C249.832 72.4667 251.082 72.8 252.682 72.8C254.216 72.8 255.582 72.45 256.782 71.75C258.016 71.05 258.899 70.0167 259.432 68.65L260.482 72.4C259.882 73.9667 258.799 75.1833 257.232 76.05C255.699 76.9167 253.749 77.35 251.382 77.35ZM307.404 50C309.537 50 311.42 50.4167 313.054 51.25C314.72 52.0833 316.02 53.3667 316.954 55.1C317.887 56.8 318.354 59 318.354 61.7V77H312.104V62.5C312.104 60.1333 311.587 58.3667 310.554 57.2C309.52 56.0333 308.037 55.45 306.104 55.45C304.737 55.45 303.52 55.75 302.454 56.35C301.42 56.95 300.604 57.8333 300.004 59C299.437 60.1667 299.154 61.65 299.154 63.45V77H292.904V62.5C292.904 60.1333 292.387 58.3667 291.354 57.2C290.32 56.0333 288.837 55.45 286.904 55.45C285.537 55.45 284.32 55.75 283.254 56.35C282.22 56.95 281.404 57.8333 280.804 59C280.237 60.1667 279.954 61.65 279.954 63.45V77H273.704V50.3H279.654V57.4L278.604 55.3C279.504 53.5667 280.804 52.25 282.504 51.35C284.237 50.45 286.204 50 288.404 50C290.904 50 293.07 50.6167 294.904 51.85C296.77 53.0833 298.004 54.95 298.604 57.45L296.154 56.6C297.02 54.6 298.454 53 300.454 51.8C302.454 50.6 304.77 50 307.404 50Z" fill="white"/>
<defs>
<linearGradient id="paint0_linear_27_1476" x1="0" y1="120" x2="143.355" y2="-427.588" gradientUnits="userSpaceOnUse">
<stop stop-color="#F8B32E"/>
<stop offset="1" stop-color="#FFE1A6"/>
</linearGradient>
</defs>
</svg>
