<svg width="293" height="212" viewBox="0 0 293 212" fill="none" xmlns="http://www.w3.org/2000/svg">
<rect y="0.5" width="293" height="211" rx="34" fill="url(#paint0_linear_647_3192)"/>
<mask id="mask0_647_3192" style="mask-type:alpha" maskUnits="userSpaceOnUse" x="0" y="0" width="293" height="212">
<rect y="0.5" width="293" height="211" rx="34" fill="url(#paint1_linear_647_3192)"/>
</mask>
<g mask="url(#mask0_647_3192)">
<g filter="url(#filter0_f_647_3192)">
<mask id="mask1_647_3192" style="mask-type:alpha" maskUnits="userSpaceOnUse" x="111" y="-48" width="219" height="220">
<rect x="111" y="-47.5" width="219" height="219" fill="#D9D9D9"/>
</mask>
<g mask="url(#mask1_647_3192)">
<path d="M220.484 148.687C200.946 148.687 184.658 141.975 171.62 128.551C158.582 115.127 152.062 98.4183 152.062 78.4249C152.062 64.2696 157.728 48.7543 169.058 31.879C180.388 15.0035 197.535 -3.38386 220.5 -23.2832C243.464 -3.38386 260.612 15.0035 271.942 31.879C283.272 48.7543 288.937 64.2696 288.937 78.4249C288.937 98.4183 282.413 115.127 269.364 128.551C256.315 141.975 240.021 148.687 220.484 148.687ZM220.5 135C236.316 135 249.396 129.639 259.737 118.917C270.079 108.195 275.25 94.6979 275.25 78.4249C275.25 67.3229 270.649 54.776 261.448 40.7843C252.247 26.7927 238.598 11.5083 220.5 -5.06879C202.402 11.5083 188.752 26.7927 179.551 40.7843C170.35 54.776 165.75 67.3229 165.75 78.4249C165.75 94.6979 170.921 108.195 181.262 118.917C191.604 129.639 204.683 135 220.5 135Z" fill="white" fill-opacity="0.4"/>
</g>
</g>
<path d="M23.384 184.5V159.3H27.236L38.252 177.696H36.236L47.072 159.3H50.924L50.96 184.5H46.532L46.496 166.248H47.432L38.216 181.62H36.128L26.768 166.248H27.848V184.5H23.384ZM65.9748 184.752C64.0068 184.752 62.2548 184.332 60.7188 183.492C59.1828 182.628 57.9708 181.452 57.0828 179.964C56.1948 178.476 55.7508 176.784 55.7508 174.888C55.7508 172.968 56.1948 171.276 57.0828 169.812C57.9708 168.324 59.1828 167.16 60.7188 166.32C62.2548 165.48 64.0068 165.06 65.9748 165.06C67.9668 165.06 69.7308 165.48 71.2668 166.32C72.8268 167.16 74.0388 168.312 74.9028 169.776C75.7908 171.24 76.2348 172.944 76.2348 174.888C76.2348 176.784 75.7908 178.476 74.9028 179.964C74.0388 181.452 72.8268 182.628 71.2668 183.492C69.7308 184.332 67.9668 184.752 65.9748 184.752ZM65.9748 180.9C67.0788 180.9 68.0628 180.66 68.9268 180.18C69.7908 179.7 70.4628 179.004 70.9428 178.092C71.4468 177.18 71.6988 176.112 71.6988 174.888C71.6988 173.64 71.4468 172.572 70.9428 171.684C70.4628 170.772 69.7908 170.076 68.9268 169.596C68.0628 169.116 67.0908 168.876 66.0108 168.876C64.9068 168.876 63.9228 169.116 63.0588 169.596C62.2188 170.076 61.5468 170.772 61.0428 171.684C60.5388 172.572 60.2868 173.64 60.2868 174.888C60.2868 176.112 60.5388 177.18 61.0428 178.092C61.5468 179.004 62.2188 179.7 63.0588 180.18C63.9228 180.66 64.8948 180.9 65.9748 180.9ZM80.5379 184.5V165.276H84.8219V170.568L84.3179 169.02C84.8939 167.724 85.7939 166.74 87.0179 166.068C88.2659 165.396 89.8139 165.06 91.6619 165.06V169.344C91.4699 169.296 91.2899 169.272 91.1219 169.272C90.9539 169.248 90.7859 169.236 90.6179 169.236C88.9139 169.236 87.5579 169.74 86.5499 170.748C85.5419 171.732 85.0379 173.208 85.0379 175.176V184.5H80.5379ZM96.2671 184.5V164.196C96.2671 162.18 96.8551 160.572 98.0311 159.372C99.2311 158.148 100.935 157.536 103.143 157.536C103.935 157.536 104.679 157.62 105.375 157.788C106.095 157.956 106.695 158.22 107.175 158.58L105.951 161.964C105.615 161.7 105.231 161.508 104.799 161.388C104.367 161.244 103.923 161.172 103.467 161.172C102.531 161.172 101.823 161.436 101.343 161.964C100.863 162.468 100.623 163.236 100.623 164.268V166.428L100.767 168.444V184.5H96.2671ZM93.0991 169.02V165.42H105.915V169.02H93.0991ZM117.303 184.752C115.335 184.752 113.583 184.332 112.047 183.492C110.511 182.628 109.299 181.452 108.411 179.964C107.523 178.476 107.079 176.784 107.079 174.888C107.079 172.968 107.523 171.276 108.411 169.812C109.299 168.324 110.511 167.16 112.047 166.32C113.583 165.48 115.335 165.06 117.303 165.06C119.295 165.06 121.059 165.48 122.595 166.32C124.155 167.16 125.367 168.312 126.231 169.776C127.119 171.24 127.563 172.944 127.563 174.888C127.563 176.784 127.119 178.476 126.231 179.964C125.367 181.452 124.155 182.628 122.595 183.492C121.059 184.332 119.295 184.752 117.303 184.752ZM117.303 180.9C118.407 180.9 119.391 180.66 120.255 180.18C121.119 179.7 121.791 179.004 122.271 178.092C122.775 177.18 123.027 176.112 123.027 174.888C123.027 173.64 122.775 172.572 122.271 171.684C121.791 170.772 121.119 170.076 120.255 169.596C119.391 169.116 118.419 168.876 117.339 168.876C116.235 168.876 115.251 169.116 114.387 169.596C113.547 170.076 112.875 170.772 112.371 171.684C111.867 172.572 111.615 173.64 111.615 174.888C111.615 176.112 111.867 177.18 112.371 178.092C112.875 179.004 113.547 179.7 114.387 180.18C115.251 180.66 116.223 180.9 117.303 180.9ZM131.866 184.5V157.788H136.366V184.5H131.866ZM150.912 184.752C148.944 184.752 147.192 184.332 145.656 183.492C144.12 182.628 142.908 181.452 142.02 179.964C141.132 178.476 140.688 176.784 140.688 174.888C140.688 172.968 141.132 171.276 142.02 169.812C142.908 168.324 144.12 167.16 145.656 166.32C147.192 165.48 148.944 165.06 150.912 165.06C152.904 165.06 154.668 165.48 156.204 166.32C157.764 167.16 158.976 168.312 159.84 169.776C160.728 171.24 161.172 172.944 161.172 174.888C161.172 176.784 160.728 178.476 159.84 179.964C158.976 181.452 157.764 182.628 156.204 183.492C154.668 184.332 152.904 184.752 150.912 184.752ZM150.912 180.9C152.016 180.9 153 180.66 153.864 180.18C154.728 179.7 155.4 179.004 155.88 178.092C156.384 177.18 156.636 176.112 156.636 174.888C156.636 173.64 156.384 172.572 155.88 171.684C155.4 170.772 154.728 170.076 153.864 169.596C153 169.116 152.028 168.876 150.948 168.876C149.844 168.876 148.86 169.116 147.996 169.596C147.156 170.076 146.484 170.772 145.98 171.684C145.476 172.572 145.224 173.64 145.224 174.888C145.224 176.112 145.476 177.18 145.98 178.092C146.484 179.004 147.156 179.7 147.996 180.18C148.86 180.66 149.832 180.9 150.912 180.9ZM174.187 191.736C172.411 191.736 170.671 191.496 168.967 191.016C167.287 190.56 165.907 189.888 164.827 189L166.843 185.616C167.683 186.312 168.739 186.864 170.011 187.272C171.307 187.704 172.615 187.92 173.935 187.92C176.047 187.92 177.595 187.428 178.579 186.444C179.563 185.484 180.055 184.032 180.055 182.088V178.668L180.415 174.312L180.271 169.956V165.276H184.555V181.584C184.555 185.064 183.667 187.62 181.891 189.252C180.115 190.908 177.547 191.736 174.187 191.736ZM173.611 183.636C171.787 183.636 170.131 183.252 168.643 182.484C167.179 181.692 166.015 180.6 165.151 179.208C164.311 177.816 163.891 176.184 163.891 174.312C163.891 172.464 164.311 170.844 165.151 169.452C166.015 168.06 167.179 166.98 168.643 166.212C170.131 165.444 171.787 165.06 173.611 165.06C175.243 165.06 176.707 165.384 178.003 166.032C179.299 166.68 180.331 167.688 181.099 169.056C181.891 170.424 182.287 172.176 182.287 174.312C182.287 176.448 181.891 178.212 181.099 179.604C180.331 180.972 179.299 181.992 178.003 182.664C176.707 183.312 175.243 183.636 173.611 183.636ZM174.295 179.82C175.423 179.82 176.431 179.592 177.319 179.136C178.207 178.656 178.891 178.008 179.371 177.192C179.875 176.352 180.127 175.392 180.127 174.312C180.127 173.232 179.875 172.284 179.371 171.468C178.891 170.628 178.207 169.992 177.319 169.56C176.431 169.104 175.423 168.876 174.295 168.876C173.167 168.876 172.147 169.104 171.235 169.56C170.347 169.992 169.651 170.628 169.147 171.468C168.667 172.284 168.427 173.232 168.427 174.312C168.427 175.392 168.667 176.352 169.147 177.192C169.651 178.008 170.347 178.656 171.235 179.136C172.147 179.592 173.167 179.82 174.295 179.82ZM190.472 184.5V165.276H194.972V184.5H190.472ZM192.74 162.108C191.9 162.108 191.204 161.844 190.652 161.316C190.124 160.788 189.86 160.152 189.86 159.408C189.86 158.64 190.124 158.004 190.652 157.5C191.204 156.972 191.9 156.708 192.74 156.708C193.58 156.708 194.264 156.96 194.792 157.464C195.344 157.944 195.62 158.556 195.62 159.3C195.62 160.092 195.356 160.764 194.828 161.316C194.3 161.844 193.604 162.108 192.74 162.108ZM212.722 184.5V180.612L212.47 179.784V172.98C212.47 171.66 212.074 170.64 211.282 169.92C210.49 169.176 209.29 168.804 207.682 168.804C206.602 168.804 205.534 168.972 204.478 169.308C203.446 169.644 202.57 170.112 201.85 170.712L200.086 167.436C201.118 166.644 202.342 166.056 203.758 165.672C205.198 165.264 206.686 165.06 208.222 165.06C211.006 165.06 213.154 165.732 214.666 167.076C216.202 168.396 216.97 170.448 216.97 173.232V184.5H212.722ZM206.674 184.752C205.234 184.752 203.974 184.512 202.894 184.032C201.814 183.528 200.974 182.844 200.374 181.98C199.798 181.092 199.51 180.096 199.51 178.992C199.51 177.912 199.762 176.94 200.266 176.076C200.794 175.212 201.646 174.528 202.822 174.024C203.998 173.52 205.558 173.268 207.502 173.268H213.082V176.256H207.826C206.29 176.256 205.258 176.508 204.73 177.012C204.202 177.492 203.938 178.092 203.938 178.812C203.938 179.628 204.262 180.276 204.91 180.756C205.558 181.236 206.458 181.476 207.61 181.476C208.714 181.476 209.698 181.224 210.562 180.72C211.45 180.216 212.086 179.472 212.47 178.488L213.226 181.188C212.794 182.316 212.014 183.192 210.886 183.816C209.782 184.44 208.378 184.752 206.674 184.752Z" fill="white"/>
<mask id="mask2_647_3192" style="mask-type:alpha" maskUnits="userSpaceOnUse" x="22" y="23" width="79" height="80">
<rect x="22" y="23.5" width="79" height="79" fill="#D9D9D9"/>
</mask>
<g mask="url(#mask2_647_3192)">
<path d="M61.4941 94.2703C54.4462 94.2703 48.5707 91.8491 43.8674 87.0066C39.1641 82.1641 36.8125 76.1368 36.8125 68.9246C36.8125 63.8183 38.8561 58.2215 42.9432 52.1341C47.0304 46.0466 53.2159 39.4137 61.4999 32.2354C69.7839 39.4137 75.9695 46.0466 80.0566 52.1341C84.1438 58.2215 86.1873 63.8183 86.1873 68.9246C86.1873 76.1368 83.8338 82.1641 79.1266 87.0066C74.4194 91.8491 68.5419 94.2703 61.4941 94.2703ZM61.4999 89.3329C67.2055 89.3329 71.9235 87.3991 75.6541 83.5314C79.3846 79.6637 81.2499 74.7947 81.2499 68.9246C81.2499 64.9197 79.5904 60.3937 76.2713 55.3465C72.9522 50.2992 68.0284 44.7857 61.4999 38.8058C54.9714 44.7857 50.0477 50.2992 46.7286 55.3465C43.4095 60.3937 41.7499 64.9197 41.7499 68.9246C41.7499 74.7947 43.6152 79.6637 47.3457 83.5314C51.0763 87.3991 55.7944 89.3329 61.4999 89.3329Z" fill="white"/>
</g>
</g>
<defs>
<filter id="filter0_f_647_3192" x="138.062" y="-37.2832" width="164.875" height="199.971" filterUnits="userSpaceOnUse" color-interpolation-filters="sRGB">
<feFlood flood-opacity="0" result="BackgroundImageFix"/>
<feBlend mode="normal" in="SourceGraphic" in2="BackgroundImageFix" result="shape"/>
<feGaussianBlur stdDeviation="7" result="effect1_foregroundBlur_647_3192"/>
</filter>
<linearGradient id="paint0_linear_647_3192" x1="41.5" y1="170" x2="309.5" y2="0.499993" gradientUnits="userSpaceOnUse">
<stop stop-color="#E24343"/>
<stop offset="1" stop-color="#EF9D9D"/>
</linearGradient>
<linearGradient id="paint1_linear_647_3192" x1="41.5" y1="170" x2="309.5" y2="0.499993" gradientUnits="userSpaceOnUse">
<stop stop-color="#8CDD6F"/>
<stop offset="1" stop-color="#C1E8B3"/>
</linearGradient>
</defs>
</svg>
